<?xml version="1.0" encoding="utf-8" standalone="no"?>
<!DOCTYPE svg PUBLIC "-//W3C//DTD SVG 1.1//EN"
  "http://www.w3.org/Graphics/SVG/1.1/DTD/svg11.dtd">
<svg xmlns:xlink="http://www.w3.org/1999/xlink" width="674.245313pt" height="669.874688pt" viewBox="0 0 674.245313 669.874688" xmlns="http://www.w3.org/2000/svg" version="1.1">
 <metadata>
  <rdf:RDF xmlns:dc="http://purl.org/dc/elements/1.1/" xmlns:cc="http://creativecommons.org/ns#" xmlns:rdf="http://www.w3.org/1999/02/22-rdf-syntax-ns#">
   <cc:Work>
    <dc:type rdf:resource="http://purl.org/dc/dcmitype/StillImage"/>
    <dc:date>2023-11-29T19:49:30.816423</dc:date>
    <dc:format>image/svg+xml</dc:format>
    <dc:creator>
     <cc:Agent>
      <dc:title>Matplotlib v3.8.2, https://matplotlib.org/</dc:title>
     </cc:Agent>
    </dc:creator>
   </cc:Work>
  </rdf:RDF>
 </metadata>
 <defs>
  <style type="text/css">*{stroke-linejoin: round; stroke-linecap: butt}</style>
 </defs>
 <g id="figure_1">
  <g id="patch_1">
   <path d="M -0 669.874688 
L 674.245313 669.874688 
L 674.245313 0 
L -0 0 
z
" style="fill: #ffffff"/>
  </g>
  <g id="axes_1">
   <g id="patch_2">
    <path d="M 59.445313 631.396563 
L 617.445312 631.396563 
L 617.445312 76.996563 
L 59.445313 76.996563 
z
" style="fill: #ffffff"/>
   </g>
   <g id="axes_2">
    <g id="patch_3">
     <path d="M 59.445313 76.996563 
L 617.445312 76.996563 
L 617.445312 76.996563 
L 59.445313 76.996563 
z
" style="fill: #ffffff"/>
    </g>
    <g id="matplotlib.axis_1">
     <g id="xtick_1">
      <g id="line2d_1">
       <defs>
        <path id="m13a67365c9" d="M 0 0 
L 0 -3.5 
" style="stroke: #000000; stroke-width: 0.8"/>
       </defs>
       <g>
        <use xlink:href="#m13a67365c9" x="552.000868" y="76.996563" style="stroke: #000000; stroke-width: 0.8"/>
       </g>
      </g>
      <g id="text_1">
       <!-- 300 -->
       <g transform="translate(542.457118 67.916875) scale(0.1 -0.1)">
        <defs>
         <path id="DejaVuSans-33" d="M 2597 2516 
Q 3050 2419 3304 2112 
Q 3559 1806 3559 1356 
Q 3559 666 3084 287 
Q 2609 -91 1734 -91 
Q 1441 -91 1130 -33 
Q 819 25 488 141 
L 488 750 
Q 750 597 1062 519 
Q 1375 441 1716 441 
Q 2309 441 2620 675 
Q 2931 909 2931 1356 
Q 2931 1769 2642 2001 
Q 2353 2234 1838 2234 
L 1294 2234 
L 1294 2753 
L 1863 2753 
Q 2328 2753 2575 2939 
Q 2822 3125 2822 3475 
Q 2822 3834 2567 4026 
Q 2313 4219 1838 4219 
Q 1578 4219 1281 4162 
Q 984 4106 628 3988 
L 628 4550 
Q 988 4650 1302 4700 
Q 1616 4750 1894 4750 
Q 2613 4750 3031 4423 
Q 3450 4097 3450 3541 
Q 3450 3153 3228 2886 
Q 3006 2619 2597 2516 
z
" transform="scale(0.015625)"/>
         <path id="DejaVuSans-30" d="M 2034 4250 
Q 1547 4250 1301 3770 
Q 1056 3291 1056 2328 
Q 1056 1369 1301 889 
Q 1547 409 2034 409 
Q 2525 409 2770 889 
Q 3016 1369 3016 2328 
Q 3016 3291 2770 3770 
Q 2525 4250 2034 4250 
z
M 2034 4750 
Q 2819 4750 3233 4129 
Q 3647 3509 3647 2328 
Q 3647 1150 3233 529 
Q 2819 -91 2034 -91 
Q 1250 -91 836 529 
Q 422 1150 422 2328 
Q 422 3509 836 4129 
Q 1250 4750 2034 4750 
z
" transform="scale(0.015625)"/>
        </defs>
        <use xlink:href="#DejaVuSans-33"/>
        <use xlink:href="#DejaVuSans-30" x="63.623047"/>
        <use xlink:href="#DejaVuSans-30" x="127.246094"/>
       </g>
      </g>
     </g>
     <g id="xtick_2">
      <g id="line2d_2">
       <g>
        <use xlink:href="#m13a67365c9" x="463.111979" y="76.996563" style="stroke: #000000; stroke-width: 0.8"/>
       </g>
      </g>
      <g id="text_2">
       <!-- 310 -->
       <g transform="translate(453.568229 67.916875) scale(0.1 -0.1)">
        <defs>
         <path id="DejaVuSans-31" d="M 794 531 
L 1825 531 
L 1825 4091 
L 703 3866 
L 703 4441 
L 1819 4666 
L 2450 4666 
L 2450 531 
L 3481 531 
L 3481 0 
L 794 0 
L 794 531 
z
" transform="scale(0.015625)"/>
        </defs>
        <use xlink:href="#DejaVuSans-33"/>
        <use xlink:href="#DejaVuSans-31" x="63.623047"/>
        <use xlink:href="#DejaVuSans-30" x="127.246094"/>
       </g>
      </g>
     </g>
     <g id="xtick_3">
      <g id="line2d_3">
       <g>
        <use xlink:href="#m13a67365c9" x="379.778646" y="76.996563" style="stroke: #000000; stroke-width: 0.8"/>
       </g>
      </g>
      <g id="text_3">
       <!-- 320 -->
       <g transform="translate(370.234896 67.916875) scale(0.1 -0.1)">
        <defs>
         <path id="DejaVuSans-32" d="M 1228 531 
L 3431 531 
L 3431 0 
L 469 0 
L 469 531 
Q 828 903 1448 1529 
Q 2069 2156 2228 2338 
Q 2531 2678 2651 2914 
Q 2772 3150 2772 3378 
Q 2772 3750 2511 3984 
Q 2250 4219 1831 4219 
Q 1534 4219 1204 4116 
Q 875 4013 500 3803 
L 500 4441 
Q 881 4594 1212 4672 
Q 1544 4750 1819 4750 
Q 2544 4750 2975 4387 
Q 3406 4025 3406 3419 
Q 3406 3131 3298 2873 
Q 3191 2616 2906 2266 
Q 2828 2175 2409 1742 
Q 1991 1309 1228 531 
z
" transform="scale(0.015625)"/>
        </defs>
        <use xlink:href="#DejaVuSans-33"/>
        <use xlink:href="#DejaVuSans-32" x="63.623047"/>
        <use xlink:href="#DejaVuSans-30" x="127.246094"/>
       </g>
      </g>
     </g>
     <g id="xtick_4">
      <g id="line2d_4">
       <g>
        <use xlink:href="#m13a67365c9" x="301.495818" y="76.996563" style="stroke: #000000; stroke-width: 0.8"/>
       </g>
      </g>
      <g id="text_4">
       <!-- 330 -->
       <g transform="translate(291.952068 67.916875) scale(0.1 -0.1)">
        <use xlink:href="#DejaVuSans-33"/>
        <use xlink:href="#DejaVuSans-33" x="63.623047"/>
        <use xlink:href="#DejaVuSans-30" x="127.246094"/>
       </g>
      </g>
     </g>
     <g id="xtick_5">
      <g id="line2d_5">
       <g>
        <use xlink:href="#m13a67365c9" x="227.817862" y="76.996563" style="stroke: #000000; stroke-width: 0.8"/>
       </g>
      </g>
      <g id="text_5">
       <!-- 340 -->
       <g transform="translate(218.274112 67.916875) scale(0.1 -0.1)">
        <defs>
         <path id="DejaVuSans-34" d="M 2419 4116 
L 825 1625 
L 2419 1625 
L 2419 4116 
z
M 2253 4666 
L 3047 4666 
L 3047 1625 
L 3713 1625 
L 3713 1100 
L 3047 1100 
L 3047 0 
L 2419 0 
L 2419 1100 
L 313 1100 
L 313 1709 
L 2253 4666 
z
" transform="scale(0.015625)"/>
        </defs>
        <use xlink:href="#DejaVuSans-33"/>
        <use xlink:href="#DejaVuSans-34" x="63.623047"/>
        <use xlink:href="#DejaVuSans-30" x="127.246094"/>
       </g>
      </g>
     </g>
     <g id="xtick_6">
      <g id="line2d_6">
       <g>
        <use xlink:href="#m13a67365c9" x="158.350074" y="76.996563" style="stroke: #000000; stroke-width: 0.8"/>
       </g>
      </g>
      <g id="text_6">
       <!-- 350 -->
       <g transform="translate(148.806324 67.916875) scale(0.1 -0.1)">
        <defs>
         <path id="DejaVuSans-35" d="M 691 4666 
L 3169 4666 
L 3169 4134 
L 1269 4134 
L 1269 2991 
Q 1406 3038 1543 3061 
Q 1681 3084 1819 3084 
Q 2600 3084 3056 2656 
Q 3513 2228 3513 1497 
Q 3513 744 3044 326 
Q 2575 -91 1722 -91 
Q 1428 -91 1123 -41 
Q 819 9 494 109 
L 494 744 
Q 775 591 1075 516 
Q 1375 441 1709 441 
Q 2250 441 2565 725 
Q 2881 1009 2881 1497 
Q 2881 1984 2565 2268 
Q 2250 2553 1709 2553 
Q 1456 2553 1204 2497 
Q 953 2441 691 2322 
L 691 4666 
z
" transform="scale(0.015625)"/>
        </defs>
        <use xlink:href="#DejaVuSans-33"/>
        <use xlink:href="#DejaVuSans-35" x="63.623047"/>
        <use xlink:href="#DejaVuSans-30" x="127.246094"/>
       </g>
      </g>
     </g>
     <g id="xtick_7">
      <g id="line2d_7">
       <g>
        <use xlink:href="#m13a67365c9" x="92.741609" y="76.996563" style="stroke: #000000; stroke-width: 0.8"/>
       </g>
      </g>
      <g id="text_7">
       <!-- 360 -->
       <g transform="translate(83.197859 67.916875) scale(0.1 -0.1)">
        <defs>
         <path id="DejaVuSans-36" d="M 2113 2584 
Q 1688 2584 1439 2293 
Q 1191 2003 1191 1497 
Q 1191 994 1439 701 
Q 1688 409 2113 409 
Q 2538 409 2786 701 
Q 3034 994 3034 1497 
Q 3034 2003 2786 2293 
Q 2538 2584 2113 2584 
z
M 3366 4563 
L 3366 3988 
Q 3128 4100 2886 4159 
Q 2644 4219 2406 4219 
Q 1781 4219 1451 3797 
Q 1122 3375 1075 2522 
Q 1259 2794 1537 2939 
Q 1816 3084 2150 3084 
Q 2853 3084 3261 2657 
Q 3669 2231 3669 1497 
Q 3669 778 3244 343 
Q 2819 -91 2113 -91 
Q 1303 -91 875 529 
Q 447 1150 447 2328 
Q 447 3434 972 4092 
Q 1497 4750 2381 4750 
Q 2619 4750 2861 4703 
Q 3103 4656 3366 4563 
z
" transform="scale(0.015625)"/>
        </defs>
        <use xlink:href="#DejaVuSans-33"/>
        <use xlink:href="#DejaVuSans-36" x="63.623047"/>
        <use xlink:href="#DejaVuSans-30" x="127.246094"/>
       </g>
      </g>
     </g>
     <g id="text_8">
      <!-- Temperatura [K] -->
      <g transform="translate(297.90625 56.318438) scale(0.1 -0.1)">
       <defs>
        <path id="DejaVuSans-54" d="M -19 4666 
L 3928 4666 
L 3928 4134 
L 2272 4134 
L 2272 0 
L 1638 0 
L 1638 4134 
L -19 4134 
L -19 4666 
z
" transform="scale(0.015625)"/>
        <path id="DejaVuSans-65" d="M 3597 1894 
L 3597 1613 
L 953 1613 
Q 991 1019 1311 708 
Q 1631 397 2203 397 
Q 2534 397 2845 478 
Q 3156 559 3463 722 
L 3463 178 
Q 3153 47 2828 -22 
Q 2503 -91 2169 -91 
Q 1331 -91 842 396 
Q 353 884 353 1716 
Q 353 2575 817 3079 
Q 1281 3584 2069 3584 
Q 2775 3584 3186 3129 
Q 3597 2675 3597 1894 
z
M 3022 2063 
Q 3016 2534 2758 2815 
Q 2500 3097 2075 3097 
Q 1594 3097 1305 2825 
Q 1016 2553 972 2059 
L 3022 2063 
z
" transform="scale(0.015625)"/>
        <path id="DejaVuSans-6d" d="M 3328 2828 
Q 3544 3216 3844 3400 
Q 4144 3584 4550 3584 
Q 5097 3584 5394 3201 
Q 5691 2819 5691 2113 
L 5691 0 
L 5113 0 
L 5113 2094 
Q 5113 2597 4934 2840 
Q 4756 3084 4391 3084 
Q 3944 3084 3684 2787 
Q 3425 2491 3425 1978 
L 3425 0 
L 2847 0 
L 2847 2094 
Q 2847 2600 2669 2842 
Q 2491 3084 2119 3084 
Q 1678 3084 1418 2786 
Q 1159 2488 1159 1978 
L 1159 0 
L 581 0 
L 581 3500 
L 1159 3500 
L 1159 2956 
Q 1356 3278 1631 3431 
Q 1906 3584 2284 3584 
Q 2666 3584 2933 3390 
Q 3200 3197 3328 2828 
z
" transform="scale(0.015625)"/>
        <path id="DejaVuSans-70" d="M 1159 525 
L 1159 -1331 
L 581 -1331 
L 581 3500 
L 1159 3500 
L 1159 2969 
Q 1341 3281 1617 3432 
Q 1894 3584 2278 3584 
Q 2916 3584 3314 3078 
Q 3713 2572 3713 1747 
Q 3713 922 3314 415 
Q 2916 -91 2278 -91 
Q 1894 -91 1617 61 
Q 1341 213 1159 525 
z
M 3116 1747 
Q 3116 2381 2855 2742 
Q 2594 3103 2138 3103 
Q 1681 3103 1420 2742 
Q 1159 2381 1159 1747 
Q 1159 1113 1420 752 
Q 1681 391 2138 391 
Q 2594 391 2855 752 
Q 3116 1113 3116 1747 
z
" transform="scale(0.015625)"/>
        <path id="DejaVuSans-72" d="M 2631 2963 
Q 2534 3019 2420 3045 
Q 2306 3072 2169 3072 
Q 1681 3072 1420 2755 
Q 1159 2438 1159 1844 
L 1159 0 
L 581 0 
L 581 3500 
L 1159 3500 
L 1159 2956 
Q 1341 3275 1631 3429 
Q 1922 3584 2338 3584 
Q 2397 3584 2469 3576 
Q 2541 3569 2628 3553 
L 2631 2963 
z
" transform="scale(0.015625)"/>
        <path id="DejaVuSans-61" d="M 2194 1759 
Q 1497 1759 1228 1600 
Q 959 1441 959 1056 
Q 959 750 1161 570 
Q 1363 391 1709 391 
Q 2188 391 2477 730 
Q 2766 1069 2766 1631 
L 2766 1759 
L 2194 1759 
z
M 3341 1997 
L 3341 0 
L 2766 0 
L 2766 531 
Q 2569 213 2275 61 
Q 1981 -91 1556 -91 
Q 1019 -91 701 211 
Q 384 513 384 1019 
Q 384 1609 779 1909 
Q 1175 2209 1959 2209 
L 2766 2209 
L 2766 2266 
Q 2766 2663 2505 2880 
Q 2244 3097 1772 3097 
Q 1472 3097 1187 3025 
Q 903 2953 641 2809 
L 641 3341 
Q 956 3463 1253 3523 
Q 1550 3584 1831 3584 
Q 2591 3584 2966 3190 
Q 3341 2797 3341 1997 
z
" transform="scale(0.015625)"/>
        <path id="DejaVuSans-74" d="M 1172 4494 
L 1172 3500 
L 2356 3500 
L 2356 3053 
L 1172 3053 
L 1172 1153 
Q 1172 725 1289 603 
Q 1406 481 1766 481 
L 2356 481 
L 2356 0 
L 1766 0 
Q 1100 0 847 248 
Q 594 497 594 1153 
L 594 3053 
L 172 3053 
L 172 3500 
L 594 3500 
L 594 4494 
L 1172 4494 
z
" transform="scale(0.015625)"/>
        <path id="DejaVuSans-75" d="M 544 1381 
L 544 3500 
L 1119 3500 
L 1119 1403 
Q 1119 906 1312 657 
Q 1506 409 1894 409 
Q 2359 409 2629 706 
Q 2900 1003 2900 1516 
L 2900 3500 
L 3475 3500 
L 3475 0 
L 2900 0 
L 2900 538 
Q 2691 219 2414 64 
Q 2138 -91 1772 -91 
Q 1169 -91 856 284 
Q 544 659 544 1381 
z
M 1991 3584 
L 1991 3584 
z
" transform="scale(0.015625)"/>
        <path id="DejaVuSans-20" transform="scale(0.015625)"/>
        <path id="DejaVuSans-5b" d="M 550 4863 
L 1875 4863 
L 1875 4416 
L 1125 4416 
L 1125 -397 
L 1875 -397 
L 1875 -844 
L 550 -844 
L 550 4863 
z
" transform="scale(0.015625)"/>
        <path id="DejaVuSans-4b" d="M 628 4666 
L 1259 4666 
L 1259 2694 
L 3353 4666 
L 4166 4666 
L 1850 2491 
L 4331 0 
L 3500 0 
L 1259 2247 
L 1259 0 
L 628 0 
L 628 4666 
z
" transform="scale(0.015625)"/>
        <path id="DejaVuSans-5d" d="M 1947 4863 
L 1947 -844 
L 622 -844 
L 622 -397 
L 1369 -397 
L 1369 4416 
L 622 4416 
L 622 4863 
L 1947 4863 
z
" transform="scale(0.015625)"/>
       </defs>
       <use xlink:href="#DejaVuSans-54"/>
       <use xlink:href="#DejaVuSans-65" x="44.083984"/>
       <use xlink:href="#DejaVuSans-6d" x="105.607422"/>
       <use xlink:href="#DejaVuSans-70" x="203.019531"/>
       <use xlink:href="#DejaVuSans-65" x="266.496094"/>
       <use xlink:href="#DejaVuSans-72" x="328.019531"/>
       <use xlink:href="#DejaVuSans-61" x="369.132812"/>
       <use xlink:href="#DejaVuSans-74" x="430.412109"/>
       <use xlink:href="#DejaVuSans-75" x="469.621094"/>
       <use xlink:href="#DejaVuSans-72" x="533"/>
       <use xlink:href="#DejaVuSans-61" x="574.113281"/>
       <use xlink:href="#DejaVuSans-20" x="635.392578"/>
       <use xlink:href="#DejaVuSans-5b" x="667.179688"/>
       <use xlink:href="#DejaVuSans-4b" x="706.193359"/>
       <use xlink:href="#DejaVuSans-5d" x="771.769531"/>
      </g>
     </g>
    </g>
    <g id="matplotlib.axis_2"/>
    <g id="patch_4">
     <path d="M 617.445312 76.996563 
L 59.445312 76.996563 
" style="fill: none; stroke: #000000; stroke-width: 0.8; stroke-linejoin: miter; stroke-linecap: square"/>
    </g>
   </g>
   <g id="axes_3">
    <g id="patch_5">
     <path d="M 617.445312 631.396563 
L 617.445313 631.396563 
L 617.445313 76.996563 
L 617.445312 76.996563 
z
" style="fill: #ffffff"/>
    </g>
    <g id="matplotlib.axis_3"/>
    <g id="matplotlib.axis_4">
     <g id="ytick_1">
      <g id="line2d_8">
       <defs>
        <path id="m728497e015" d="M 0 0 
L 3.5 0 
" style="stroke: #000000; stroke-width: 0.8"/>
       </defs>
       <g>
        <use xlink:href="#m728497e015" x="617.445313" y="296.657704" style="stroke: #000000; stroke-width: 0.8"/>
       </g>
      </g>
      <g id="text_9">
       <!-- 50 k$\Omega$ -->
       <g transform="translate(624.445313 300.456922) scale(0.1 -0.1)">
        <defs>
         <path id="DejaVuSans-6b" d="M 581 4863 
L 1159 4863 
L 1159 1991 
L 2875 3500 
L 3609 3500 
L 1753 1863 
L 3688 0 
L 2938 0 
L 1159 1709 
L 1159 0 
L 581 0 
L 581 4863 
z
" transform="scale(0.015625)"/>
         <path id="DejaVuSans-3a9" d="M 4647 556 
L 4647 0 
L 2772 0 
L 2772 556 
Q 3325 859 3634 1378 
Q 3944 1897 3944 2528 
Q 3944 3278 3531 3731 
Q 3119 4184 2444 4184 
Q 1769 4184 1355 3729 
Q 941 3275 941 2528 
Q 941 1897 1250 1378 
Q 1563 859 2119 556 
L 2119 0 
L 244 0 
L 244 556 
L 1241 556 
Q 747 991 519 1456 
Q 294 1922 294 2497 
Q 294 3491 894 4106 
Q 1491 4722 2444 4722 
Q 3391 4722 3994 4106 
Q 4594 3494 4594 2528 
Q 4594 1922 4372 1459 
Q 4150 997 3647 556 
L 4647 556 
z
" transform="scale(0.015625)"/>
        </defs>
        <use xlink:href="#DejaVuSans-35" transform="translate(0 0.015625)"/>
        <use xlink:href="#DejaVuSans-30" transform="translate(63.623047 0.015625)"/>
        <use xlink:href="#DejaVuSans-20" transform="translate(127.246094 0.015625)"/>
        <use xlink:href="#DejaVuSans-6b" transform="translate(159.033203 0.015625)"/>
        <use xlink:href="#DejaVuSans-3a9" transform="translate(216.943359 0.015625)"/>
       </g>
      </g>
     </g>
     <g id="ytick_2">
      <g id="line2d_9">
       <g>
        <use xlink:href="#m728497e015" x="617.445313" y="438.983925" style="stroke: #000000; stroke-width: 0.8"/>
       </g>
      </g>
      <g id="text_10">
       <!-- 100 k$\Omega$ -->
       <g transform="translate(624.445313 442.783143) scale(0.1 -0.1)">
        <use xlink:href="#DejaVuSans-31" transform="translate(0 0.015625)"/>
        <use xlink:href="#DejaVuSans-30" transform="translate(63.623047 0.015625)"/>
        <use xlink:href="#DejaVuSans-30" transform="translate(127.246094 0.015625)"/>
        <use xlink:href="#DejaVuSans-20" transform="translate(190.869141 0.015625)"/>
        <use xlink:href="#DejaVuSans-6b" transform="translate(222.65625 0.015625)"/>
        <use xlink:href="#DejaVuSans-3a9" transform="translate(280.566406 0.015625)"/>
       </g>
      </g>
     </g>
     <g id="ytick_3">
      <g id="line2d_10">
       <g>
        <use xlink:href="#m728497e015" x="617.445313" y="522.239427" style="stroke: #000000; stroke-width: 0.8"/>
       </g>
      </g>
      <g id="text_11">
       <!-- 150 k$\Omega$ -->
       <g transform="translate(624.445313 526.038646) scale(0.1 -0.1)">
        <use xlink:href="#DejaVuSans-31" transform="translate(0 0.015625)"/>
        <use xlink:href="#DejaVuSans-35" transform="translate(63.623047 0.015625)"/>
        <use xlink:href="#DejaVuSans-30" transform="translate(127.246094 0.015625)"/>
        <use xlink:href="#DejaVuSans-20" transform="translate(190.869141 0.015625)"/>
        <use xlink:href="#DejaVuSans-6b" transform="translate(222.65625 0.015625)"/>
        <use xlink:href="#DejaVuSans-3a9" transform="translate(280.566406 0.015625)"/>
       </g>
      </g>
     </g>
     <g id="ytick_4">
      <g id="line2d_11">
       <g>
        <use xlink:href="#m728497e015" x="617.445313" y="581.310146" style="stroke: #000000; stroke-width: 0.8"/>
       </g>
      </g>
      <g id="text_12">
       <!-- 200 k$\Omega$ -->
       <g transform="translate(624.445313 585.109365) scale(0.1 -0.1)">
        <use xlink:href="#DejaVuSans-32" transform="translate(0 0.015625)"/>
        <use xlink:href="#DejaVuSans-30" transform="translate(63.623047 0.015625)"/>
        <use xlink:href="#DejaVuSans-30" transform="translate(127.246094 0.015625)"/>
        <use xlink:href="#DejaVuSans-20" transform="translate(190.869141 0.015625)"/>
        <use xlink:href="#DejaVuSans-6b" transform="translate(222.65625 0.015625)"/>
        <use xlink:href="#DejaVuSans-3a9" transform="translate(280.566406 0.015625)"/>
       </g>
      </g>
     </g>
     <g id="ytick_5">
      <g id="line2d_12">
       <g>
        <use xlink:href="#m728497e015" x="617.445313" y="627.128955" style="stroke: #000000; stroke-width: 0.8"/>
       </g>
      </g>
      <g id="text_13">
       <!-- 250 k$\Omega$ -->
       <g transform="translate(624.445313 630.928174) scale(0.1 -0.1)">
        <use xlink:href="#DejaVuSans-32" transform="translate(0 0.015625)"/>
        <use xlink:href="#DejaVuSans-35" transform="translate(63.623047 0.015625)"/>
        <use xlink:href="#DejaVuSans-30" transform="translate(127.246094 0.015625)"/>
        <use xlink:href="#DejaVuSans-20" transform="translate(190.869141 0.015625)"/>
        <use xlink:href="#DejaVuSans-6b" transform="translate(222.65625 0.015625)"/>
        <use xlink:href="#DejaVuSans-3a9" transform="translate(280.566406 0.015625)"/>
       </g>
      </g>
     </g>
     <g id="text_14">
      <!-- Opór [$\Omega$] -->
      <g transform="translate(672.145313 375.746563) rotate(-90) scale(0.1 -0.1)">
       <defs>
        <path id="DejaVuSans-4f" d="M 2522 4238 
Q 1834 4238 1429 3725 
Q 1025 3213 1025 2328 
Q 1025 1447 1429 934 
Q 1834 422 2522 422 
Q 3209 422 3611 934 
Q 4013 1447 4013 2328 
Q 4013 3213 3611 3725 
Q 3209 4238 2522 4238 
z
M 2522 4750 
Q 3503 4750 4090 4092 
Q 4678 3434 4678 2328 
Q 4678 1225 4090 567 
Q 3503 -91 2522 -91 
Q 1538 -91 948 565 
Q 359 1222 359 2328 
Q 359 3434 948 4092 
Q 1538 4750 2522 4750 
z
" transform="scale(0.015625)"/>
        <path id="DejaVuSans-f3" d="M 1959 3097 
Q 1497 3097 1228 2736 
Q 959 2375 959 1747 
Q 959 1119 1226 758 
Q 1494 397 1959 397 
Q 2419 397 2687 759 
Q 2956 1122 2956 1747 
Q 2956 2369 2687 2733 
Q 2419 3097 1959 3097 
z
M 1959 3584 
Q 2709 3584 3137 3096 
Q 3566 2609 3566 1747 
Q 3566 888 3137 398 
Q 2709 -91 1959 -91 
Q 1206 -91 779 398 
Q 353 888 353 1747 
Q 353 2609 779 3096 
Q 1206 3584 1959 3584 
z
M 2394 5119 
L 3016 5119 
L 1997 3944 
L 1519 3944 
L 2394 5119 
z
" transform="scale(0.015625)"/>
       </defs>
       <use xlink:href="#DejaVuSans-4f" transform="translate(0 0.015625)"/>
       <use xlink:href="#DejaVuSans-70" transform="translate(78.710938 0.015625)"/>
       <use xlink:href="#DejaVuSans-f3" transform="translate(142.1875 0.015625)"/>
       <use xlink:href="#DejaVuSans-72" transform="translate(203.369141 0.015625)"/>
       <use xlink:href="#DejaVuSans-20" transform="translate(244.482422 0.015625)"/>
       <use xlink:href="#DejaVuSans-5b" transform="translate(276.269531 0.015625)"/>
       <use xlink:href="#DejaVuSans-3a9" transform="translate(315.283203 0.015625)"/>
       <use xlink:href="#DejaVuSans-5d" transform="translate(391.699219 0.015625)"/>
      </g>
     </g>
    </g>
    <g id="patch_6">
     <path d="M 617.445313 76.996563 
L 617.445313 631.396563 
" style="fill: none; stroke: #000000; stroke-width: 0.8; stroke-linejoin: miter; stroke-linecap: square"/>
    </g>
   </g>
   <g id="matplotlib.axis_5">
    <g id="xtick_8">
     <g id="line2d_13">
      <path d="M 152.445312 631.396563 
L 152.445312 76.996563 
" clip-path="url(#pfe05c6ecd6)" style="fill: none; stroke: #b0b0b0; stroke-width: 0.8; stroke-linecap: square"/>
     </g>
     <g id="line2d_14">
      <defs>
       <path id="med01d7bb26" d="M 0 0 
L 0 3.5 
" style="stroke: #000000; stroke-width: 0.8"/>
      </defs>
      <g>
       <use xlink:href="#med01d7bb26" x="152.445312" y="631.396563" style="stroke: #000000; stroke-width: 0.8"/>
      </g>
     </g>
     <g id="text_15">
      <!-- 2.85 -->
      <g transform="translate(141.3125 645.995) scale(0.1 -0.1)">
       <defs>
        <path id="DejaVuSans-2e" d="M 684 794 
L 1344 794 
L 1344 0 
L 684 0 
L 684 794 
z
" transform="scale(0.015625)"/>
        <path id="DejaVuSans-38" d="M 2034 2216 
Q 1584 2216 1326 1975 
Q 1069 1734 1069 1313 
Q 1069 891 1326 650 
Q 1584 409 2034 409 
Q 2484 409 2743 651 
Q 3003 894 3003 1313 
Q 3003 1734 2745 1975 
Q 2488 2216 2034 2216 
z
M 1403 2484 
Q 997 2584 770 2862 
Q 544 3141 544 3541 
Q 544 4100 942 4425 
Q 1341 4750 2034 4750 
Q 2731 4750 3128 4425 
Q 3525 4100 3525 3541 
Q 3525 3141 3298 2862 
Q 3072 2584 2669 2484 
Q 3125 2378 3379 2068 
Q 3634 1759 3634 1313 
Q 3634 634 3220 271 
Q 2806 -91 2034 -91 
Q 1263 -91 848 271 
Q 434 634 434 1313 
Q 434 1759 690 2068 
Q 947 2378 1403 2484 
z
M 1172 3481 
Q 1172 3119 1398 2916 
Q 1625 2713 2034 2713 
Q 2441 2713 2670 2916 
Q 2900 3119 2900 3481 
Q 2900 3844 2670 4047 
Q 2441 4250 2034 4250 
Q 1625 4250 1398 4047 
Q 1172 3844 1172 3481 
z
" transform="scale(0.015625)"/>
       </defs>
       <use xlink:href="#DejaVuSans-32"/>
       <use xlink:href="#DejaVuSans-2e" x="63.623047"/>
       <use xlink:href="#DejaVuSans-38" x="95.410156"/>
       <use xlink:href="#DejaVuSans-35" x="159.033203"/>
      </g>
     </g>
    </g>
    <g id="xtick_9">
     <g id="line2d_15">
      <path d="M 276.445312 631.396563 
L 276.445312 76.996563 
" clip-path="url(#pfe05c6ecd6)" style="fill: none; stroke: #b0b0b0; stroke-width: 0.8; stroke-linecap: square"/>
     </g>
     <g id="line2d_16">
      <g>
       <use xlink:href="#med01d7bb26" x="276.445312" y="631.396563" style="stroke: #000000; stroke-width: 0.8"/>
      </g>
     </g>
     <g id="text_16">
      <!-- 3.0 -->
      <g transform="translate(268.49375 645.995) scale(0.1 -0.1)">
       <use xlink:href="#DejaVuSans-33"/>
       <use xlink:href="#DejaVuSans-2e" x="63.623047"/>
       <use xlink:href="#DejaVuSans-30" x="95.410156"/>
      </g>
     </g>
    </g>
    <g id="xtick_10">
     <g id="line2d_17">
      <path d="M 400.445312 631.396563 
L 400.445312 76.996563 
" clip-path="url(#pfe05c6ecd6)" style="fill: none; stroke: #b0b0b0; stroke-width: 0.8; stroke-linecap: square"/>
     </g>
     <g id="line2d_18">
      <g>
       <use xlink:href="#med01d7bb26" x="400.445312" y="631.396563" style="stroke: #000000; stroke-width: 0.8"/>
      </g>
     </g>
     <g id="text_17">
      <!-- 3.15 -->
      <g transform="translate(389.3125 645.995) scale(0.1 -0.1)">
       <use xlink:href="#DejaVuSans-33"/>
       <use xlink:href="#DejaVuSans-2e" x="63.623047"/>
       <use xlink:href="#DejaVuSans-31" x="95.410156"/>
       <use xlink:href="#DejaVuSans-35" x="159.033203"/>
      </g>
     </g>
    </g>
    <g id="xtick_11">
     <g id="line2d_19">
      <path d="M 524.445313 631.396563 
L 524.445313 76.996563 
" clip-path="url(#pfe05c6ecd6)" style="fill: none; stroke: #b0b0b0; stroke-width: 0.8; stroke-linecap: square"/>
     </g>
     <g id="line2d_20">
      <g>
       <use xlink:href="#med01d7bb26" x="524.445313" y="631.396563" style="stroke: #000000; stroke-width: 0.8"/>
      </g>
     </g>
     <g id="text_18">
      <!-- 3.3 -->
      <g transform="translate(516.49375 645.995) scale(0.1 -0.1)">
       <use xlink:href="#DejaVuSans-33"/>
       <use xlink:href="#DejaVuSans-2e" x="63.623047"/>
       <use xlink:href="#DejaVuSans-33" x="95.410156"/>
      </g>
     </g>
    </g>
    <g id="xtick_12">
     <g id="line2d_21">
      <path d="M 59.445312 631.396563 
L 59.445312 76.996563 
" clip-path="url(#pfe05c6ecd6)" style="fill: none; stroke: #b0b0b0; stroke-width: 0.8; stroke-linecap: square"/>
     </g>
     <g id="line2d_22">
      <defs>
       <path id="mc52c46589e" d="M 0 0 
L 0 2 
" style="stroke: #000000; stroke-width: 0.6"/>
      </defs>
      <g>
       <use xlink:href="#mc52c46589e" x="59.445312" y="631.396563" style="stroke: #000000; stroke-width: 0.6"/>
      </g>
     </g>
    </g>
    <g id="xtick_13">
     <g id="line2d_23">
      <path d="M 90.445312 631.396563 
L 90.445312 76.996563 
" clip-path="url(#pfe05c6ecd6)" style="fill: none; stroke: #b0b0b0; stroke-width: 0.8; stroke-linecap: square"/>
     </g>
     <g id="line2d_24">
      <g>
       <use xlink:href="#mc52c46589e" x="90.445312" y="631.396563" style="stroke: #000000; stroke-width: 0.6"/>
      </g>
     </g>
    </g>
    <g id="xtick_14">
     <g id="line2d_25">
      <path d="M 121.445312 631.396563 
L 121.445312 76.996563 
" clip-path="url(#pfe05c6ecd6)" style="fill: none; stroke: #b0b0b0; stroke-width: 0.8; stroke-linecap: square"/>
     </g>
     <g id="line2d_26">
      <g>
       <use xlink:href="#mc52c46589e" x="121.445312" y="631.396563" style="stroke: #000000; stroke-width: 0.6"/>
      </g>
     </g>
    </g>
    <g id="xtick_15">
     <g id="line2d_27">
      <path d="M 183.445312 631.396563 
L 183.445312 76.996563 
" clip-path="url(#pfe05c6ecd6)" style="fill: none; stroke: #b0b0b0; stroke-width: 0.8; stroke-linecap: square"/>
     </g>
     <g id="line2d_28">
      <g>
       <use xlink:href="#mc52c46589e" x="183.445312" y="631.396563" style="stroke: #000000; stroke-width: 0.6"/>
      </g>
     </g>
    </g>
    <g id="xtick_16">
     <g id="line2d_29">
      <path d="M 214.445312 631.396563 
L 214.445312 76.996563 
" clip-path="url(#pfe05c6ecd6)" style="fill: none; stroke: #b0b0b0; stroke-width: 0.8; stroke-linecap: square"/>
     </g>
     <g id="line2d_30">
      <g>
       <use xlink:href="#mc52c46589e" x="214.445312" y="631.396563" style="stroke: #000000; stroke-width: 0.6"/>
      </g>
     </g>
    </g>
    <g id="xtick_17">
     <g id="line2d_31">
      <path d="M 245.445312 631.396563 
L 245.445312 76.996563 
" clip-path="url(#pfe05c6ecd6)" style="fill: none; stroke: #b0b0b0; stroke-width: 0.8; stroke-linecap: square"/>
     </g>
     <g id="line2d_32">
      <g>
       <use xlink:href="#mc52c46589e" x="245.445312" y="631.396563" style="stroke: #000000; stroke-width: 0.6"/>
      </g>
     </g>
    </g>
    <g id="xtick_18">
     <g id="line2d_33">
      <path d="M 307.445313 631.396563 
L 307.445313 76.996563 
" clip-path="url(#pfe05c6ecd6)" style="fill: none; stroke: #b0b0b0; stroke-width: 0.8; stroke-linecap: square"/>
     </g>
     <g id="line2d_34">
      <g>
       <use xlink:href="#mc52c46589e" x="307.445313" y="631.396563" style="stroke: #000000; stroke-width: 0.6"/>
      </g>
     </g>
    </g>
    <g id="xtick_19">
     <g id="line2d_35">
      <path d="M 338.445312 631.396563 
L 338.445312 76.996563 
" clip-path="url(#pfe05c6ecd6)" style="fill: none; stroke: #b0b0b0; stroke-width: 0.8; stroke-linecap: square"/>
     </g>
     <g id="line2d_36">
      <g>
       <use xlink:href="#mc52c46589e" x="338.445312" y="631.396563" style="stroke: #000000; stroke-width: 0.6"/>
      </g>
     </g>
    </g>
    <g id="xtick_20">
     <g id="line2d_37">
      <path d="M 369.445312 631.396563 
L 369.445312 76.996563 
" clip-path="url(#pfe05c6ecd6)" style="fill: none; stroke: #b0b0b0; stroke-width: 0.8; stroke-linecap: square"/>
     </g>
     <g id="line2d_38">
      <g>
       <use xlink:href="#mc52c46589e" x="369.445312" y="631.396563" style="stroke: #000000; stroke-width: 0.6"/>
      </g>
     </g>
    </g>
    <g id="xtick_21">
     <g id="line2d_39">
      <path d="M 431.445313 631.396563 
L 431.445313 76.996563 
" clip-path="url(#pfe05c6ecd6)" style="fill: none; stroke: #b0b0b0; stroke-width: 0.8; stroke-linecap: square"/>
     </g>
     <g id="line2d_40">
      <g>
       <use xlink:href="#mc52c46589e" x="431.445313" y="631.396563" style="stroke: #000000; stroke-width: 0.6"/>
      </g>
     </g>
    </g>
    <g id="xtick_22">
     <g id="line2d_41">
      <path d="M 462.445313 631.396563 
L 462.445313 76.996563 
" clip-path="url(#pfe05c6ecd6)" style="fill: none; stroke: #b0b0b0; stroke-width: 0.8; stroke-linecap: square"/>
     </g>
     <g id="line2d_42">
      <g>
       <use xlink:href="#mc52c46589e" x="462.445313" y="631.396563" style="stroke: #000000; stroke-width: 0.6"/>
      </g>
     </g>
    </g>
    <g id="xtick_23">
     <g id="line2d_43">
      <path d="M 493.445312 631.396563 
L 493.445312 76.996563 
" clip-path="url(#pfe05c6ecd6)" style="fill: none; stroke: #b0b0b0; stroke-width: 0.8; stroke-linecap: square"/>
     </g>
     <g id="line2d_44">
      <g>
       <use xlink:href="#mc52c46589e" x="493.445312" y="631.396563" style="stroke: #000000; stroke-width: 0.6"/>
      </g>
     </g>
    </g>
    <g id="xtick_24">
     <g id="line2d_45">
      <path d="M 555.445313 631.396563 
L 555.445313 76.996563 
" clip-path="url(#pfe05c6ecd6)" style="fill: none; stroke: #b0b0b0; stroke-width: 0.8; stroke-linecap: square"/>
     </g>
     <g id="line2d_46">
      <g>
       <use xlink:href="#mc52c46589e" x="555.445313" y="631.396563" style="stroke: #000000; stroke-width: 0.6"/>
      </g>
     </g>
    </g>
    <g id="xtick_25">
     <g id="line2d_47">
      <path d="M 586.445313 631.396563 
L 586.445313 76.996563 
" clip-path="url(#pfe05c6ecd6)" style="fill: none; stroke: #b0b0b0; stroke-width: 0.8; stroke-linecap: square"/>
     </g>
     <g id="line2d_48">
      <g>
       <use xlink:href="#mc52c46589e" x="586.445313" y="631.396563" style="stroke: #000000; stroke-width: 0.6"/>
      </g>
     </g>
    </g>
    <g id="xtick_26">
     <g id="line2d_49">
      <path d="M 617.445312 631.396563 
L 617.445312 76.996563 
" clip-path="url(#pfe05c6ecd6)" style="fill: none; stroke: #b0b0b0; stroke-width: 0.8; stroke-linecap: square"/>
     </g>
     <g id="line2d_50">
      <g>
       <use xlink:href="#mc52c46589e" x="617.445312" y="631.396563" style="stroke: #000000; stroke-width: 0.6"/>
      </g>
     </g>
    </g>
    <g id="text_19">
     <!-- Odwrotność temperatury  $\dfrac{1}{T}$ $[10^{-3} \cdot \dfrac{1}{K}]$ -->
     <g transform="translate(243.945312 663.774688) scale(0.1 -0.1)">
      <defs>
       <path id="DejaVuSans-64" d="M 2906 2969 
L 2906 4863 
L 3481 4863 
L 3481 0 
L 2906 0 
L 2906 525 
Q 2725 213 2448 61 
Q 2172 -91 1784 -91 
Q 1150 -91 751 415 
Q 353 922 353 1747 
Q 353 2572 751 3078 
Q 1150 3584 1784 3584 
Q 2172 3584 2448 3432 
Q 2725 3281 2906 2969 
z
M 947 1747 
Q 947 1113 1208 752 
Q 1469 391 1925 391 
Q 2381 391 2643 752 
Q 2906 1113 2906 1747 
Q 2906 2381 2643 2742 
Q 2381 3103 1925 3103 
Q 1469 3103 1208 2742 
Q 947 2381 947 1747 
z
" transform="scale(0.015625)"/>
       <path id="DejaVuSans-77" d="M 269 3500 
L 844 3500 
L 1563 769 
L 2278 3500 
L 2956 3500 
L 3675 769 
L 4391 3500 
L 4966 3500 
L 4050 0 
L 3372 0 
L 2619 2869 
L 1863 0 
L 1184 0 
L 269 3500 
z
" transform="scale(0.015625)"/>
       <path id="DejaVuSans-6f" d="M 1959 3097 
Q 1497 3097 1228 2736 
Q 959 2375 959 1747 
Q 959 1119 1226 758 
Q 1494 397 1959 397 
Q 2419 397 2687 759 
Q 2956 1122 2956 1747 
Q 2956 2369 2687 2733 
Q 2419 3097 1959 3097 
z
M 1959 3584 
Q 2709 3584 3137 3096 
Q 3566 2609 3566 1747 
Q 3566 888 3137 398 
Q 2709 -91 1959 -91 
Q 1206 -91 779 398 
Q 353 888 353 1747 
Q 353 2609 779 3096 
Q 1206 3584 1959 3584 
z
" transform="scale(0.015625)"/>
       <path id="DejaVuSans-6e" d="M 3513 2113 
L 3513 0 
L 2938 0 
L 2938 2094 
Q 2938 2591 2744 2837 
Q 2550 3084 2163 3084 
Q 1697 3084 1428 2787 
Q 1159 2491 1159 1978 
L 1159 0 
L 581 0 
L 581 3500 
L 1159 3500 
L 1159 2956 
Q 1366 3272 1645 3428 
Q 1925 3584 2291 3584 
Q 2894 3584 3203 3211 
Q 3513 2838 3513 2113 
z
" transform="scale(0.015625)"/>
       <path id="DejaVuSans-15b" d="M 2241 5141 
L 2863 5141 
L 1844 3966 
L 1366 3966 
L 2241 5141 
z
M 2834 3397 
L 2834 2853 
Q 2591 2978 2328 3040 
Q 2066 3103 1784 3103 
Q 1356 3103 1142 2972 
Q 928 2841 928 2578 
Q 928 2378 1081 2264 
Q 1234 2150 1697 2047 
L 1894 2003 
Q 2506 1872 2764 1633 
Q 3022 1394 3022 966 
Q 3022 478 2636 193 
Q 2250 -91 1575 -91 
Q 1294 -91 989 -36 
Q 684 19 347 128 
L 347 722 
Q 666 556 975 473 
Q 1284 391 1588 391 
Q 1994 391 2212 530 
Q 2431 669 2431 922 
Q 2431 1156 2273 1281 
Q 2116 1406 1581 1522 
L 1381 1569 
Q 847 1681 609 1914 
Q 372 2147 372 2553 
Q 372 3047 722 3315 
Q 1072 3584 1716 3584 
Q 2034 3584 2315 3537 
Q 2597 3491 2834 3397 
z
" transform="scale(0.015625)"/>
       <path id="DejaVuSans-107" d="M 3122 3366 
L 3122 2828 
Q 2878 2963 2633 3030 
Q 2388 3097 2138 3097 
Q 1578 3097 1268 2742 
Q 959 2388 959 1747 
Q 959 1106 1268 751 
Q 1578 397 2138 397 
Q 2388 397 2633 464 
Q 2878 531 3122 666 
L 3122 134 
Q 2881 22 2623 -34 
Q 2366 -91 2075 -91 
Q 1284 -91 818 406 
Q 353 903 353 1747 
Q 353 2603 823 3093 
Q 1294 3584 2113 3584 
Q 2378 3584 2631 3529 
Q 2884 3475 3122 3366 
z
M 2463 5119 
L 3084 5119 
L 2066 3944 
L 1588 3944 
L 2463 5119 
z
" transform="scale(0.015625)"/>
       <path id="DejaVuSans-79" d="M 2059 -325 
Q 1816 -950 1584 -1140 
Q 1353 -1331 966 -1331 
L 506 -1331 
L 506 -850 
L 844 -850 
Q 1081 -850 1212 -737 
Q 1344 -625 1503 -206 
L 1606 56 
L 191 3500 
L 800 3500 
L 1894 763 
L 2988 3500 
L 3597 3500 
L 2059 -325 
z
" transform="scale(0.015625)"/>
       <path id="DejaVuSans-Oblique-54" d="M 378 4666 
L 4325 4666 
L 4225 4134 
L 2559 4134 
L 1759 0 
L 1125 0 
L 1925 4134 
L 275 4134 
L 378 4666 
z
" transform="scale(0.015625)"/>
       <path id="DejaVuSans-2212" d="M 678 2272 
L 4684 2272 
L 4684 1741 
L 678 1741 
L 678 2272 
z
" transform="scale(0.015625)"/>
       <path id="DejaVuSans-22c5" d="M 684 2619 
L 1344 2619 
L 1344 1825 
L 684 1825 
L 684 2619 
z
" transform="scale(0.015625)"/>
       <path id="DejaVuSans-Oblique-4b" d="M 1081 4666 
L 1716 4666 
L 1331 2700 
L 3781 4666 
L 4622 4666 
L 1850 2438 
L 3878 0 
L 3109 0 
L 1247 2272 
L 806 0 
L 172 0 
L 1081 4666 
z
" transform="scale(0.015625)"/>
      </defs>
      <use xlink:href="#DejaVuSans-4f" transform="translate(0 0.296875)"/>
      <use xlink:href="#DejaVuSans-64" transform="translate(78.710938 0.296875)"/>
      <use xlink:href="#DejaVuSans-77" transform="translate(142.1875 0.296875)"/>
      <use xlink:href="#DejaVuSans-72" transform="translate(223.974609 0.296875)"/>
      <use xlink:href="#DejaVuSans-6f" transform="translate(265.087891 0.296875)"/>
      <use xlink:href="#DejaVuSans-74" transform="translate(326.269531 0.296875)"/>
      <use xlink:href="#DejaVuSans-6e" transform="translate(365.478516 0.296875)"/>
      <use xlink:href="#DejaVuSans-6f" transform="translate(428.857422 0.296875)"/>
      <use xlink:href="#DejaVuSans-15b" transform="translate(490.039062 0.296875)"/>
      <use xlink:href="#DejaVuSans-107" transform="translate(542.138672 0.296875)"/>
      <use xlink:href="#DejaVuSans-20" transform="translate(597.119141 0.296875)"/>
      <use xlink:href="#DejaVuSans-74" transform="translate(628.90625 0.296875)"/>
      <use xlink:href="#DejaVuSans-65" transform="translate(668.115234 0.296875)"/>
      <use xlink:href="#DejaVuSans-6d" transform="translate(729.638672 0.296875)"/>
      <use xlink:href="#DejaVuSans-70" transform="translate(827.050781 0.296875)"/>
      <use xlink:href="#DejaVuSans-65" transform="translate(890.527344 0.296875)"/>
      <use xlink:href="#DejaVuSans-72" transform="translate(952.050781 0.296875)"/>
      <use xlink:href="#DejaVuSans-61" transform="translate(993.164062 0.296875)"/>
      <use xlink:href="#DejaVuSans-74" transform="translate(1054.443359 0.296875)"/>
      <use xlink:href="#DejaVuSans-75" transform="translate(1093.652344 0.296875)"/>
      <use xlink:href="#DejaVuSans-72" transform="translate(1157.03125 0.296875)"/>
      <use xlink:href="#DejaVuSans-79" transform="translate(1198.144531 0.296875)"/>
      <use xlink:href="#DejaVuSans-20" transform="translate(1257.324219 0.296875)"/>
      <use xlink:href="#DejaVuSans-20" transform="translate(1289.111328 0.296875)"/>
      <use xlink:href="#DejaVuSans-31" transform="translate(1320.898438 44.09375)"/>
      <use xlink:href="#DejaVuSans-Oblique-54" transform="translate(1321.898438 -60.0625)"/>
      <use xlink:href="#DejaVuSans-20" transform="translate(1397.021484 0.296875)"/>
      <use xlink:href="#DejaVuSans-5b" transform="translate(1428.808594 0.296875)"/>
      <use xlink:href="#DejaVuSans-31" transform="translate(1467.822266 0.296875)"/>
      <use xlink:href="#DejaVuSans-30" transform="translate(1531.445312 0.296875)"/>
      <use xlink:href="#DejaVuSans-2212" transform="translate(1596.025391 38.578125) scale(0.7)"/>
      <use xlink:href="#DejaVuSans-33" transform="translate(1654.677734 38.578125) scale(0.7)"/>
      <use xlink:href="#DejaVuSans-22c5" transform="translate(1721.430664 0.296875)"/>
      <use xlink:href="#DejaVuSans-31" transform="translate(1773.700195 44.09375)"/>
      <use xlink:href="#DejaVuSans-Oblique-4b" transform="translate(1772.700195 -60.0625)"/>
      <use xlink:href="#DejaVuSans-5d" transform="translate(1850.776367 0.296875)"/>
      <path d="M 1320.898438 19.09375 
L 1320.898438 25.34375 
L 1384.521484 25.34375 
L 1384.521484 19.09375 
L 1320.898438 19.09375 
z
"/>
      <path d="M 1772.700195 19.09375 
L 1772.700195 25.34375 
L 1838.276367 25.34375 
L 1838.276367 19.09375 
L 1772.700195 19.09375 
z
"/>
     </g>
    </g>
   </g>
   <g id="matplotlib.axis_6">
    <g id="ytick_6">
     <g id="line2d_51">
      <path d="M 59.445313 538.996563 
L 617.445312 538.996563 
" clip-path="url(#pfe05c6ecd6)" style="fill: none; stroke: #b0b0b0; stroke-width: 0.8; stroke-linecap: square"/>
     </g>
     <g id="line2d_52">
      <defs>
       <path id="m4594cd2aee" d="M 0 0 
L -3.5 0 
" style="stroke: #000000; stroke-width: 0.8"/>
      </defs>
      <g>
       <use xlink:href="#m4594cd2aee" x="59.445313" y="538.996563" style="stroke: #000000; stroke-width: 0.8"/>
      </g>
     </g>
     <g id="text_20">
      <!-- −12.0 -->
      <g transform="translate(21.8 542.795781) scale(0.1 -0.1)">
       <use xlink:href="#DejaVuSans-2212"/>
       <use xlink:href="#DejaVuSans-31" x="83.789062"/>
       <use xlink:href="#DejaVuSans-32" x="147.412109"/>
       <use xlink:href="#DejaVuSans-2e" x="211.035156"/>
       <use xlink:href="#DejaVuSans-30" x="242.822266"/>
      </g>
     </g>
    </g>
    <g id="ytick_7">
     <g id="line2d_53">
      <path d="M 59.445313 415.796563 
L 617.445312 415.796563 
" clip-path="url(#pfe05c6ecd6)" style="fill: none; stroke: #b0b0b0; stroke-width: 0.8; stroke-linecap: square"/>
     </g>
     <g id="line2d_54">
      <g>
       <use xlink:href="#m4594cd2aee" x="59.445313" y="415.796563" style="stroke: #000000; stroke-width: 0.8"/>
      </g>
     </g>
     <g id="text_21">
      <!-- −11.4 -->
      <g transform="translate(21.8 419.595781) scale(0.1 -0.1)">
       <use xlink:href="#DejaVuSans-2212"/>
       <use xlink:href="#DejaVuSans-31" x="83.789062"/>
       <use xlink:href="#DejaVuSans-31" x="147.412109"/>
       <use xlink:href="#DejaVuSans-2e" x="211.035156"/>
       <use xlink:href="#DejaVuSans-34" x="242.822266"/>
      </g>
     </g>
    </g>
    <g id="ytick_8">
     <g id="line2d_55">
      <path d="M 59.445313 292.596563 
L 617.445312 292.596563 
" clip-path="url(#pfe05c6ecd6)" style="fill: none; stroke: #b0b0b0; stroke-width: 0.8; stroke-linecap: square"/>
     </g>
     <g id="line2d_56">
      <g>
       <use xlink:href="#m4594cd2aee" x="59.445313" y="292.596563" style="stroke: #000000; stroke-width: 0.8"/>
      </g>
     </g>
     <g id="text_22">
      <!-- −10.8 -->
      <g transform="translate(21.8 296.395781) scale(0.1 -0.1)">
       <use xlink:href="#DejaVuSans-2212"/>
       <use xlink:href="#DejaVuSans-31" x="83.789062"/>
       <use xlink:href="#DejaVuSans-30" x="147.412109"/>
       <use xlink:href="#DejaVuSans-2e" x="211.035156"/>
       <use xlink:href="#DejaVuSans-38" x="242.822266"/>
      </g>
     </g>
    </g>
    <g id="ytick_9">
     <g id="line2d_57">
      <path d="M 59.445313 169.396563 
L 617.445312 169.396563 
" clip-path="url(#pfe05c6ecd6)" style="fill: none; stroke: #b0b0b0; stroke-width: 0.8; stroke-linecap: square"/>
     </g>
     <g id="line2d_58">
      <g>
       <use xlink:href="#m4594cd2aee" x="59.445313" y="169.396563" style="stroke: #000000; stroke-width: 0.8"/>
      </g>
     </g>
     <g id="text_23">
      <!-- −10.2 -->
      <g transform="translate(21.8 173.195781) scale(0.1 -0.1)">
       <use xlink:href="#DejaVuSans-2212"/>
       <use xlink:href="#DejaVuSans-31" x="83.789062"/>
       <use xlink:href="#DejaVuSans-30" x="147.412109"/>
       <use xlink:href="#DejaVuSans-2e" x="211.035156"/>
       <use xlink:href="#DejaVuSans-32" x="242.822266"/>
      </g>
     </g>
    </g>
    <g id="ytick_10">
     <g id="line2d_59">
      <path d="M 59.445313 631.396563 
L 617.445312 631.396563 
" clip-path="url(#pfe05c6ecd6)" style="fill: none; stroke: #b0b0b0; stroke-width: 0.8; stroke-linecap: square"/>
     </g>
     <g id="line2d_60">
      <defs>
       <path id="mfe99ab8cca" d="M 0 0 
L -2 0 
" style="stroke: #000000; stroke-width: 0.6"/>
      </defs>
      <g>
       <use xlink:href="#mfe99ab8cca" x="59.445313" y="631.396563" style="stroke: #000000; stroke-width: 0.6"/>
      </g>
     </g>
    </g>
    <g id="ytick_11">
     <g id="line2d_61">
      <path d="M 59.445313 600.596563 
L 617.445312 600.596563 
" clip-path="url(#pfe05c6ecd6)" style="fill: none; stroke: #b0b0b0; stroke-width: 0.8; stroke-linecap: square"/>
     </g>
     <g id="line2d_62">
      <g>
       <use xlink:href="#mfe99ab8cca" x="59.445313" y="600.596563" style="stroke: #000000; stroke-width: 0.6"/>
      </g>
     </g>
    </g>
    <g id="ytick_12">
     <g id="line2d_63">
      <path d="M 59.445313 569.796563 
L 617.445312 569.796563 
" clip-path="url(#pfe05c6ecd6)" style="fill: none; stroke: #b0b0b0; stroke-width: 0.8; stroke-linecap: square"/>
     </g>
     <g id="line2d_64">
      <g>
       <use xlink:href="#mfe99ab8cca" x="59.445313" y="569.796563" style="stroke: #000000; stroke-width: 0.6"/>
      </g>
     </g>
    </g>
    <g id="ytick_13">
     <g id="line2d_65">
      <path d="M 59.445313 508.196563 
L 617.445312 508.196563 
" clip-path="url(#pfe05c6ecd6)" style="fill: none; stroke: #b0b0b0; stroke-width: 0.8; stroke-linecap: square"/>
     </g>
     <g id="line2d_66">
      <g>
       <use xlink:href="#mfe99ab8cca" x="59.445313" y="508.196563" style="stroke: #000000; stroke-width: 0.6"/>
      </g>
     </g>
    </g>
    <g id="ytick_14">
     <g id="line2d_67">
      <path d="M 59.445313 477.396563 
L 617.445312 477.396563 
" clip-path="url(#pfe05c6ecd6)" style="fill: none; stroke: #b0b0b0; stroke-width: 0.8; stroke-linecap: square"/>
     </g>
     <g id="line2d_68">
      <g>
       <use xlink:href="#mfe99ab8cca" x="59.445313" y="477.396563" style="stroke: #000000; stroke-width: 0.6"/>
      </g>
     </g>
    </g>
    <g id="ytick_15">
     <g id="line2d_69">
      <path d="M 59.445313 446.596563 
L 617.445312 446.596563 
" clip-path="url(#pfe05c6ecd6)" style="fill: none; stroke: #b0b0b0; stroke-width: 0.8; stroke-linecap: square"/>
     </g>
     <g id="line2d_70">
      <g>
       <use xlink:href="#mfe99ab8cca" x="59.445313" y="446.596563" style="stroke: #000000; stroke-width: 0.6"/>
      </g>
     </g>
    </g>
    <g id="ytick_16">
     <g id="line2d_71">
      <path d="M 59.445313 384.996563 
L 617.445312 384.996563 
" clip-path="url(#pfe05c6ecd6)" style="fill: none; stroke: #b0b0b0; stroke-width: 0.8; stroke-linecap: square"/>
     </g>
     <g id="line2d_72">
      <g>
       <use xlink:href="#mfe99ab8cca" x="59.445313" y="384.996563" style="stroke: #000000; stroke-width: 0.6"/>
      </g>
     </g>
    </g>
    <g id="ytick_17">
     <g id="line2d_73">
      <path d="M 59.445313 354.196563 
L 617.445312 354.196563 
" clip-path="url(#pfe05c6ecd6)" style="fill: none; stroke: #b0b0b0; stroke-width: 0.8; stroke-linecap: square"/>
     </g>
     <g id="line2d_74">
      <g>
       <use xlink:href="#mfe99ab8cca" x="59.445313" y="354.196563" style="stroke: #000000; stroke-width: 0.6"/>
      </g>
     </g>
    </g>
    <g id="ytick_18">
     <g id="line2d_75">
      <path d="M 59.445313 323.396563 
L 617.445312 323.396563 
" clip-path="url(#pfe05c6ecd6)" style="fill: none; stroke: #b0b0b0; stroke-width: 0.8; stroke-linecap: square"/>
     </g>
     <g id="line2d_76">
      <g>
       <use xlink:href="#mfe99ab8cca" x="59.445313" y="323.396563" style="stroke: #000000; stroke-width: 0.6"/>
      </g>
     </g>
    </g>
    <g id="ytick_19">
     <g id="line2d_77">
      <path d="M 59.445313 261.796563 
L 617.445312 261.796563 
" clip-path="url(#pfe05c6ecd6)" style="fill: none; stroke: #b0b0b0; stroke-width: 0.8; stroke-linecap: square"/>
     </g>
     <g id="line2d_78">
      <g>
       <use xlink:href="#mfe99ab8cca" x="59.445313" y="261.796563" style="stroke: #000000; stroke-width: 0.6"/>
      </g>
     </g>
    </g>
    <g id="ytick_20">
     <g id="line2d_79">
      <path d="M 59.445313 230.996563 
L 617.445312 230.996563 
" clip-path="url(#pfe05c6ecd6)" style="fill: none; stroke: #b0b0b0; stroke-width: 0.8; stroke-linecap: square"/>
     </g>
     <g id="line2d_80">
      <g>
       <use xlink:href="#mfe99ab8cca" x="59.445313" y="230.996563" style="stroke: #000000; stroke-width: 0.6"/>
      </g>
     </g>
    </g>
    <g id="ytick_21">
     <g id="line2d_81">
      <path d="M 59.445313 200.196563 
L 617.445312 200.196563 
" clip-path="url(#pfe05c6ecd6)" style="fill: none; stroke: #b0b0b0; stroke-width: 0.8; stroke-linecap: square"/>
     </g>
     <g id="line2d_82">
      <g>
       <use xlink:href="#mfe99ab8cca" x="59.445313" y="200.196563" style="stroke: #000000; stroke-width: 0.6"/>
      </g>
     </g>
    </g>
    <g id="ytick_22">
     <g id="line2d_83">
      <path d="M 59.445313 138.596563 
L 617.445312 138.596563 
" clip-path="url(#pfe05c6ecd6)" style="fill: none; stroke: #b0b0b0; stroke-width: 0.8; stroke-linecap: square"/>
     </g>
     <g id="line2d_84">
      <g>
       <use xlink:href="#mfe99ab8cca" x="59.445313" y="138.596563" style="stroke: #000000; stroke-width: 0.6"/>
      </g>
     </g>
    </g>
    <g id="ytick_23">
     <g id="line2d_85">
      <path d="M 59.445313 107.796563 
L 617.445312 107.796563 
" clip-path="url(#pfe05c6ecd6)" style="fill: none; stroke: #b0b0b0; stroke-width: 0.8; stroke-linecap: square"/>
     </g>
     <g id="line2d_86">
      <g>
       <use xlink:href="#mfe99ab8cca" x="59.445313" y="107.796563" style="stroke: #000000; stroke-width: 0.6"/>
      </g>
     </g>
    </g>
    <g id="ytick_24">
     <g id="line2d_87">
      <path d="M 59.445313 76.996563 
L 617.445312 76.996563 
" clip-path="url(#pfe05c6ecd6)" style="fill: none; stroke: #b0b0b0; stroke-width: 0.8; stroke-linecap: square"/>
     </g>
     <g id="line2d_88">
      <g>
       <use xlink:href="#mfe99ab8cca" x="59.445313" y="76.996563" style="stroke: #000000; stroke-width: 0.6"/>
      </g>
     </g>
    </g>
    <g id="text_24">
     <!-- Logarytm przewodnictwa półprzewodnika  $\ln\left(\dfrac{1}{R}\right)$  [$-ln(\Omega)$] -->
     <g transform="translate(11.7 500.346563) rotate(-90) scale(0.1 -0.1)">
      <defs>
       <path id="DejaVuSans-4c" d="M 628 4666 
L 1259 4666 
L 1259 531 
L 3531 531 
L 3531 0 
L 628 0 
L 628 4666 
z
" transform="scale(0.015625)"/>
       <path id="DejaVuSans-67" d="M 2906 1791 
Q 2906 2416 2648 2759 
Q 2391 3103 1925 3103 
Q 1463 3103 1205 2759 
Q 947 2416 947 1791 
Q 947 1169 1205 825 
Q 1463 481 1925 481 
Q 2391 481 2648 825 
Q 2906 1169 2906 1791 
z
M 3481 434 
Q 3481 -459 3084 -895 
Q 2688 -1331 1869 -1331 
Q 1566 -1331 1297 -1286 
Q 1028 -1241 775 -1147 
L 775 -588 
Q 1028 -725 1275 -790 
Q 1522 -856 1778 -856 
Q 2344 -856 2625 -561 
Q 2906 -266 2906 331 
L 2906 616 
Q 2728 306 2450 153 
Q 2172 0 1784 0 
Q 1141 0 747 490 
Q 353 981 353 1791 
Q 353 2603 747 3093 
Q 1141 3584 1784 3584 
Q 2172 3584 2450 3431 
Q 2728 3278 2906 2969 
L 2906 3500 
L 3481 3500 
L 3481 434 
z
" transform="scale(0.015625)"/>
       <path id="DejaVuSans-7a" d="M 353 3500 
L 3084 3500 
L 3084 2975 
L 922 459 
L 3084 459 
L 3084 0 
L 275 0 
L 275 525 
L 2438 3041 
L 353 3041 
L 353 3500 
z
" transform="scale(0.015625)"/>
       <path id="DejaVuSans-69" d="M 603 3500 
L 1178 3500 
L 1178 0 
L 603 0 
L 603 3500 
z
M 603 4863 
L 1178 4863 
L 1178 4134 
L 603 4134 
L 603 4863 
z
" transform="scale(0.015625)"/>
       <path id="DejaVuSans-63" d="M 3122 3366 
L 3122 2828 
Q 2878 2963 2633 3030 
Q 2388 3097 2138 3097 
Q 1578 3097 1268 2742 
Q 959 2388 959 1747 
Q 959 1106 1268 751 
Q 1578 397 2138 397 
Q 2388 397 2633 464 
Q 2878 531 3122 666 
L 3122 134 
Q 2881 22 2623 -34 
Q 2366 -91 2075 -91 
Q 1284 -91 818 406 
Q 353 903 353 1747 
Q 353 2603 823 3093 
Q 1294 3584 2113 3584 
Q 2378 3584 2631 3529 
Q 2884 3475 3122 3366 
z
" transform="scale(0.015625)"/>
       <path id="DejaVuSans-142" d="M 622 4863 
L 1197 4863 
L 1197 2981 
L 1588 3263 
L 1825 2931 
L 1197 2491 
L 1197 0 
L 622 0 
L 622 2081 
L 238 1806 
L 6 2138 
L 622 2578 
L 622 4863 
z
" transform="scale(0.015625)"/>
       <path id="DejaVuSans-6c" d="M 603 4863 
L 1178 4863 
L 1178 0 
L 603 0 
L 603 4863 
z
" transform="scale(0.015625)"/>
       <path id="STIXSizeTwoSym-Regular-28" d="M 3219 -1555 
L 3219 -1786 
Q 2144 -774 1517 730 
Q 890 2234 890 4115 
Q 890 6003 1533 7593 
Q 2176 9184 3219 10022 
L 3219 9811 
Q 2490 9062 1994 7606 
Q 1498 6150 1498 4115 
Q 1498 563 3219 -1555 
z
" transform="scale(0.015625)"/>
       <path id="DejaVuSans-Oblique-52" d="M 1613 4147 
L 1294 2491 
L 2106 2491 
Q 2584 2491 2879 2755 
Q 3175 3019 3175 3444 
Q 3175 3784 2976 3965 
Q 2778 4147 2406 4147 
L 1613 4147 
z
M 2772 2241 
Q 2972 2194 3105 2009 
Q 3238 1825 3413 1275 
L 3809 0 
L 3144 0 
L 2778 1197 
Q 2638 1659 2453 1815 
Q 2269 1972 1888 1972 
L 1191 1972 
L 806 0 
L 172 0 
L 1081 4666 
L 2503 4666 
Q 3150 4666 3495 4373 
Q 3841 4081 3841 3531 
Q 3841 3044 3547 2687 
Q 3253 2331 2772 2241 
z
" transform="scale(0.015625)"/>
       <path id="STIXSizeTwoSym-Regular-29" d="M 730 9792 
L 730 10022 
Q 1805 9011 2432 7507 
Q 3059 6003 3059 4115 
Q 3059 2234 2416 643 
Q 1773 -947 730 -1786 
L 730 -1574 
Q 1459 -826 1955 633 
Q 2451 2093 2451 4115 
Q 2451 7674 730 9792 
z
" transform="scale(0.015625)"/>
       <path id="DejaVuSans-Oblique-6c" d="M 1172 4863 
L 1747 4863 
L 800 0 
L 225 0 
L 1172 4863 
z
" transform="scale(0.015625)"/>
       <path id="DejaVuSans-Oblique-6e" d="M 3566 2113 
L 3156 0 
L 2578 0 
L 2988 2091 
Q 3016 2238 3031 2350 
Q 3047 2463 3047 2528 
Q 3047 2791 2881 2937 
Q 2716 3084 2419 3084 
Q 1956 3084 1622 2776 
Q 1288 2469 1184 1941 
L 800 0 
L 225 0 
L 903 3500 
L 1478 3500 
L 1363 2950 
Q 1603 3253 1940 3418 
Q 2278 3584 2650 3584 
Q 3113 3584 3367 3334 
Q 3622 3084 3622 2631 
Q 3622 2519 3608 2391 
Q 3594 2263 3566 2113 
z
" transform="scale(0.015625)"/>
       <path id="DejaVuSans-28" d="M 1984 4856 
Q 1566 4138 1362 3434 
Q 1159 2731 1159 2009 
Q 1159 1288 1364 580 
Q 1569 -128 1984 -844 
L 1484 -844 
Q 1016 -109 783 600 
Q 550 1309 550 2009 
Q 550 2706 781 3412 
Q 1013 4119 1484 4856 
L 1984 4856 
z
" transform="scale(0.015625)"/>
       <path id="DejaVuSans-29" d="M 513 4856 
L 1013 4856 
Q 1481 4119 1714 3412 
Q 1947 2706 1947 2009 
Q 1947 1309 1714 600 
Q 1481 -109 1013 -844 
L 513 -844 
Q 928 -128 1133 580 
Q 1338 1288 1338 2009 
Q 1338 2731 1133 3434 
Q 928 4138 513 4856 
z
" transform="scale(0.015625)"/>
      </defs>
      <use xlink:href="#DejaVuSans-4c" transform="translate(0 0.296875)"/>
      <use xlink:href="#DejaVuSans-6f" transform="translate(55.712891 0.296875)"/>
      <use xlink:href="#DejaVuSans-67" transform="translate(116.894531 0.296875)"/>
      <use xlink:href="#DejaVuSans-61" transform="translate(180.371094 0.296875)"/>
      <use xlink:href="#DejaVuSans-72" transform="translate(241.650391 0.296875)"/>
      <use xlink:href="#DejaVuSans-79" transform="translate(282.763672 0.296875)"/>
      <use xlink:href="#DejaVuSans-74" transform="translate(341.943359 0.296875)"/>
      <use xlink:href="#DejaVuSans-6d" transform="translate(381.152344 0.296875)"/>
      <use xlink:href="#DejaVuSans-20" transform="translate(478.564453 0.296875)"/>
      <use xlink:href="#DejaVuSans-70" transform="translate(510.351562 0.296875)"/>
      <use xlink:href="#DejaVuSans-72" transform="translate(573.828125 0.296875)"/>
      <use xlink:href="#DejaVuSans-7a" transform="translate(614.941406 0.296875)"/>
      <use xlink:href="#DejaVuSans-65" transform="translate(667.431641 0.296875)"/>
      <use xlink:href="#DejaVuSans-77" transform="translate(728.955078 0.296875)"/>
      <use xlink:href="#DejaVuSans-6f" transform="translate(810.742188 0.296875)"/>
      <use xlink:href="#DejaVuSans-64" transform="translate(871.923828 0.296875)"/>
      <use xlink:href="#DejaVuSans-6e" transform="translate(935.400391 0.296875)"/>
      <use xlink:href="#DejaVuSans-69" transform="translate(998.779297 0.296875)"/>
      <use xlink:href="#DejaVuSans-63" transform="translate(1026.5625 0.296875)"/>
      <use xlink:href="#DejaVuSans-74" transform="translate(1081.542969 0.296875)"/>
      <use xlink:href="#DejaVuSans-77" transform="translate(1120.751953 0.296875)"/>
      <use xlink:href="#DejaVuSans-61" transform="translate(1202.539062 0.296875)"/>
      <use xlink:href="#DejaVuSans-20" transform="translate(1263.818359 0.296875)"/>
      <use xlink:href="#DejaVuSans-70" transform="translate(1295.605469 0.296875)"/>
      <use xlink:href="#DejaVuSans-f3" transform="translate(1359.082031 0.296875)"/>
      <use xlink:href="#DejaVuSans-142" transform="translate(1420.263672 0.296875)"/>
      <use xlink:href="#DejaVuSans-70" transform="translate(1448.681641 0.296875)"/>
      <use xlink:href="#DejaVuSans-72" transform="translate(1512.158203 0.296875)"/>
      <use xlink:href="#DejaVuSans-7a" transform="translate(1553.271484 0.296875)"/>
      <use xlink:href="#DejaVuSans-65" transform="translate(1605.761719 0.296875)"/>
      <use xlink:href="#DejaVuSans-77" transform="translate(1667.285156 0.296875)"/>
      <use xlink:href="#DejaVuSans-6f" transform="translate(1749.072266 0.296875)"/>
      <use xlink:href="#DejaVuSans-64" transform="translate(1810.253906 0.296875)"/>
      <use xlink:href="#DejaVuSans-6e" transform="translate(1873.730469 0.296875)"/>
      <use xlink:href="#DejaVuSans-69" transform="translate(1937.109375 0.296875)"/>
      <use xlink:href="#DejaVuSans-6b" transform="translate(1964.892578 0.296875)"/>
      <use xlink:href="#DejaVuSans-61" transform="translate(2022.802734 0.296875)"/>
      <use xlink:href="#DejaVuSans-20" transform="translate(2084.082031 0.296875)"/>
      <use xlink:href="#DejaVuSans-20" transform="translate(2115.869141 0.296875)"/>
      <use xlink:href="#DejaVuSans-6c" transform="translate(2147.65625 0.296875)"/>
      <use xlink:href="#DejaVuSans-6e" transform="translate(2175.439453 0.296875)"/>
      <use xlink:href="#STIXSizeTwoSym-Regular-28" transform="translate(2255.054036 -33.28125) scale(0.959688)"/>
      <use xlink:href="#DejaVuSans-31" transform="translate(2314.579625 44.09375)"/>
      <use xlink:href="#DejaVuSans-Oblique-52" transform="translate(2311.579625 -60.0625)"/>
      <use xlink:href="#STIXSizeTwoSym-Regular-29" transform="translate(2393.562047 -33.28125) scale(0.959688)"/>
      <use xlink:href="#DejaVuSans-20" transform="translate(2451.911046 0.296875)"/>
      <use xlink:href="#DejaVuSans-20" transform="translate(2483.698155 0.296875)"/>
      <use xlink:href="#DejaVuSans-5b" transform="translate(2515.485264 0.296875)"/>
      <use xlink:href="#DejaVuSans-2212" transform="translate(2554.498936 0.296875)"/>
      <use xlink:href="#DejaVuSans-Oblique-6c" transform="translate(2638.287999 0.296875)"/>
      <use xlink:href="#DejaVuSans-Oblique-6e" transform="translate(2666.071202 0.296875)"/>
      <use xlink:href="#DejaVuSans-28" transform="translate(2729.450108 0.296875)"/>
      <use xlink:href="#DejaVuSans-3a9" transform="translate(2768.46378 0.296875)"/>
      <use xlink:href="#DejaVuSans-29" transform="translate(2844.879796 0.296875)"/>
      <use xlink:href="#DejaVuSans-5d" transform="translate(2883.893467 0.296875)"/>
      <path d="M 2311.579625 19.09375 
L 2311.579625 25.34375 
L 2381.062047 25.34375 
L 2381.062047 19.09375 
L 2311.579625 19.09375 
z
"/>
     </g>
    </g>
   </g>
   <g id="PatchCollection_1">
    <path d="M 580.30311 594.926615 
L 582.179341 594.926615 
L 582.179341 587.730171 
L 580.30311 587.730171 
z
" clip-path="url(#pfe05c6ecd6)" style="fill: #0000ff; fill-opacity: 0.5"/>
    <path d="M 535.11212 549.596695 
L 536.927911 549.596695 
L 536.927911 541.422472 
L 535.11212 541.422472 
z
" clip-path="url(#pfe05c6ecd6)" style="fill: #0000ff; fill-opacity: 0.5"/>
    <path d="M 481.735484 499.207024 
L 483.481163 499.207024 
L 483.481163 489.65197 
L 481.735484 489.65197 
z
" clip-path="url(#pfe05c6ecd6)" style="fill: #0000ff; fill-opacity: 0.5"/>
    <path d="M 445.593147 465.754881 
L 447.292135 465.754881 
L 447.292135 455.070148 
L 445.593147 455.070148 
z
" clip-path="url(#pfe05c6ecd6)" style="fill: #0000ff; fill-opacity: 0.5"/>
    <path d="M 397.252564 415.309885 
L 398.890094 415.309885 
L 398.890094 411.093334 
L 397.252564 411.093334 
z
" clip-path="url(#pfe05c6ecd6)" style="fill: #0000ff; fill-opacity: 0.5"/>
    <path d="M 365.727633 386.158831 
L 367.325694 386.158831 
L 367.325694 381.799859 
L 365.727633 381.799859 
z
" clip-path="url(#pfe05c6ecd6)" style="fill: #0000ff; fill-opacity: 0.5"/>
    <path d="M 321.003534 343.462122 
L 322.546426 343.462122 
L 322.546426 338.854191 
L 321.003534 338.854191 
z
" clip-path="url(#pfe05c6ecd6)" style="fill: #0000ff; fill-opacity: 0.5"/>
    <path d="M 283.034549 305.563962 
L 284.531368 305.563962 
L 284.531368 300.686898 
L 283.034549 300.686898 
z
" clip-path="url(#pfe05c6ecd6)" style="fill: #0000ff; fill-opacity: 0.5"/>
    <path d="M 246.916912 271.118611 
L 248.37055 271.118611 
L 248.37055 265.949485 
L 246.916912 265.949485 
z
" clip-path="url(#pfe05c6ecd6)" style="fill: #0000ff; fill-opacity: 0.5"/>
    <path d="M 211.833468 237.030669 
L 213.245769 237.030669 
L 213.245769 231.519501 
L 211.833468 231.519501 
z
" clip-path="url(#pfe05c6ecd6)" style="fill: #0000ff; fill-opacity: 0.5"/>
    <path d="M 177.740424 203.433263 
L 179.113126 203.433263 
L 179.113126 197.523862 
L 177.740424 197.523862 
z
" clip-path="url(#pfe05c6ecd6)" style="fill: #0000ff; fill-opacity: 0.5"/>
    <path d="M 141.931481 169.488384 
L 143.263198 169.488384 
L 143.263198 163.103679 
L 141.931481 163.103679 
z
" clip-path="url(#pfe05c6ecd6)" style="fill: #0000ff; fill-opacity: 0.5"/>
    <path d="M 108.476083 137.067803 
L 109.77007 137.067803 
L 109.77007 130.148251 
L 108.476083 130.148251 
z
" clip-path="url(#pfe05c6ecd6)" style="fill: #0000ff; fill-opacity: 0.5"/>
    <path d="M 74.077504 102.851072 
L 75.333263 102.851072 
L 75.333263 95.265564 
L 74.077504 95.265564 
z
" clip-path="url(#pfe05c6ecd6)" style="fill: #0000ff; fill-opacity: 0.5"/>
   </g>
   <g id="line2d_89">
    <path d="M 581.241225 590.815 
L 536.020016 547.036893 
L 482.608324 495.329679 
L 446.442641 460.318118 
L 398.071329 413.490435 
L 366.526664 382.952425 
L 321.77498 339.62886 
L 283.782959 302.849243 
L 247.643731 267.863293 
L 212.539618 233.879425 
L 178.426775 200.855194 
L 142.597339 166.16915 
L 109.123076 133.76312 
L 74.705383 100.443767 
" clip-path="url(#pfe05c6ecd6)" style="fill: none; stroke: #1f77b4; stroke-width: 1.5; stroke-linecap: square"/>
   </g>
   <g id="line2d_90">
    <defs>
     <path id="m52bb7fc633" d="M -3 3 
L 3 -3 
M -3 -3 
L 3 3 
" style="stroke: #000000"/>
    </defs>
    <g clip-path="url(#pfe05c6ecd6)">
     <use xlink:href="#m52bb7fc633" x="581.241225" y="591.328393" style="stroke: #000000"/>
     <use xlink:href="#m52bb7fc633" x="536.020016" y="545.509584" style="stroke: #000000"/>
     <use xlink:href="#m52bb7fc633" x="482.608324" y="494.429497" style="stroke: #000000"/>
     <use xlink:href="#m52bb7fc633" x="446.442641" y="460.412515" style="stroke: #000000"/>
     <use xlink:href="#m52bb7fc633" x="398.071329" y="413.20161" style="stroke: #000000"/>
     <use xlink:href="#m52bb7fc633" x="366.526664" y="383.979345" style="stroke: #000000"/>
     <use xlink:href="#m52bb7fc633" x="321.77498" y="341.158156" style="stroke: #000000"/>
     <use xlink:href="#m52bb7fc633" x="283.782959" y="303.12543" style="stroke: #000000"/>
     <use xlink:href="#m52bb7fc633" x="247.643731" y="268.534048" style="stroke: #000000"/>
     <use xlink:href="#m52bb7fc633" x="212.539618" y="234.275085" style="stroke: #000000"/>
     <use xlink:href="#m52bb7fc633" x="178.426775" y="200.478563" style="stroke: #000000"/>
     <use xlink:href="#m52bb7fc633" x="142.597339" y="166.296032" style="stroke: #000000"/>
     <use xlink:href="#m52bb7fc633" x="109.123076" y="133.608027" style="stroke: #000000"/>
     <use xlink:href="#m52bb7fc633" x="74.705383" y="99.058318" style="stroke: #000000"/>
    </g>
   </g>
   <g id="patch_7">
    <path d="M 59.445313 631.396563 
L 59.445313 76.996563 
" style="fill: none; stroke: #000000; stroke-width: 0.8; stroke-linejoin: miter; stroke-linecap: square"/>
   </g>
   <g id="patch_8">
    <path d="M 617.445312 631.396563 
L 617.445312 76.996563 
" style="fill: none; stroke: #000000; stroke-width: 0.8; stroke-linejoin: miter; stroke-linecap: square"/>
   </g>
   <g id="patch_9">
    <path d="M 59.445312 631.396563 
L 617.445312 631.396563 
" style="fill: none; stroke: #000000; stroke-width: 0.8; stroke-linejoin: miter; stroke-linecap: square"/>
   </g>
   <g id="patch_10">
    <path d="M 59.445312 76.996563 
L 617.445312 76.996563 
" style="fill: none; stroke: #000000; stroke-width: 0.8; stroke-linejoin: miter; stroke-linecap: square"/>
   </g>
   <g id="text_25">
    <!-- Wykres zależności $\ln\left(\dfrac{1}{R}\right) = ƒ\left(\dfrac{1}{T}\right)$ dla półprzewodnika -->
    <g transform="translate(129.805312 18.72) scale(0.16 -0.16)">
     <defs>
      <path id="DejaVuSans-57" d="M 213 4666 
L 850 4666 
L 1831 722 
L 2809 4666 
L 3519 4666 
L 4500 722 
L 5478 4666 
L 6119 4666 
L 4947 0 
L 4153 0 
L 3169 4050 
L 2175 0 
L 1381 0 
L 213 4666 
z
" transform="scale(0.015625)"/>
      <path id="DejaVuSans-73" d="M 2834 3397 
L 2834 2853 
Q 2591 2978 2328 3040 
Q 2066 3103 1784 3103 
Q 1356 3103 1142 2972 
Q 928 2841 928 2578 
Q 928 2378 1081 2264 
Q 1234 2150 1697 2047 
L 1894 2003 
Q 2506 1872 2764 1633 
Q 3022 1394 3022 966 
Q 3022 478 2636 193 
Q 2250 -91 1575 -91 
Q 1294 -91 989 -36 
Q 684 19 347 128 
L 347 722 
Q 666 556 975 473 
Q 1284 391 1588 391 
Q 1994 391 2212 530 
Q 2431 669 2431 922 
Q 2431 1156 2273 1281 
Q 2116 1406 1581 1522 
L 1381 1569 
Q 847 1681 609 1914 
Q 372 2147 372 2553 
Q 372 3047 722 3315 
Q 1072 3584 1716 3584 
Q 2034 3584 2315 3537 
Q 2597 3491 2834 3397 
z
" transform="scale(0.015625)"/>
      <path id="DejaVuSans-17c" d="M 1378 4863 
L 1953 4863 
L 1953 4134 
L 1378 4134 
L 1378 4863 
z
M 1672 3584 
L 1672 3584 
z
M 353 3500 
L 3084 3500 
L 3084 2975 
L 922 459 
L 3084 459 
L 3084 0 
L 275 0 
L 275 525 
L 2438 3041 
L 353 3041 
L 353 3500 
z
" transform="scale(0.015625)"/>
      <path id="DejaVuSans-3d" d="M 678 2906 
L 4684 2906 
L 4684 2381 
L 678 2381 
L 678 2906 
z
M 678 1631 
L 4684 1631 
L 4684 1100 
L 678 1100 
L 678 1631 
z
" transform="scale(0.015625)"/>
      <path id="DejaVuSans-Oblique-192" d="M 2978 4863 
L 2884 4384 
L 2334 4384 
Q 2025 4384 1881 4259 
Q 1734 4134 1672 3809 
L 1613 3500 
L 2559 3500 
L 2472 3053 
L 1525 3053 
L 891 -213 
Q 778 -797 453 -1063 
Q 128 -1331 -463 -1331 
L -1006 -1331 
L -913 -853 
L -363 -853 
Q -53 -853 91 -728 
Q 238 -603 300 -278 
L 947 3053 
L 397 3053 
L 484 3500 
L 1034 3500 
L 1081 3744 
Q 1194 4328 1519 4594 
Q 1844 4863 2434 4863 
L 2978 4863 
z
" transform="scale(0.015625)"/>
     </defs>
     <use xlink:href="#DejaVuSans-57" transform="translate(0 0.296875)"/>
     <use xlink:href="#DejaVuSans-79" transform="translate(98.876953 0.296875)"/>
     <use xlink:href="#DejaVuSans-6b" transform="translate(158.056641 0.296875)"/>
     <use xlink:href="#DejaVuSans-72" transform="translate(215.966797 0.296875)"/>
     <use xlink:href="#DejaVuSans-65" transform="translate(257.080078 0.296875)"/>
     <use xlink:href="#DejaVuSans-73" transform="translate(318.603516 0.296875)"/>
     <use xlink:href="#DejaVuSans-20" transform="translate(370.703125 0.296875)"/>
     <use xlink:href="#DejaVuSans-7a" transform="translate(402.490234 0.296875)"/>
     <use xlink:href="#DejaVuSans-61" transform="translate(454.980469 0.296875)"/>
     <use xlink:href="#DejaVuSans-6c" transform="translate(516.259766 0.296875)"/>
     <use xlink:href="#DejaVuSans-65" transform="translate(544.042969 0.296875)"/>
     <use xlink:href="#DejaVuSans-17c" transform="translate(605.566406 0.296875)"/>
     <use xlink:href="#DejaVuSans-6e" transform="translate(658.056641 0.296875)"/>
     <use xlink:href="#DejaVuSans-6f" transform="translate(721.435547 0.296875)"/>
     <use xlink:href="#DejaVuSans-15b" transform="translate(782.617188 0.296875)"/>
     <use xlink:href="#DejaVuSans-63" transform="translate(834.716797 0.296875)"/>
     <use xlink:href="#DejaVuSans-69" transform="translate(889.697266 0.296875)"/>
     <use xlink:href="#DejaVuSans-20" transform="translate(917.480469 0.296875)"/>
     <use xlink:href="#DejaVuSans-6c" transform="translate(949.267578 0.296875)"/>
     <use xlink:href="#DejaVuSans-6e" transform="translate(977.050781 0.296875)"/>
     <use xlink:href="#STIXSizeTwoSym-Regular-28" transform="translate(1056.665364 -33.28125) scale(0.959688)"/>
     <use xlink:href="#DejaVuSans-31" transform="translate(1116.190953 44.09375)"/>
     <use xlink:href="#DejaVuSans-Oblique-52" transform="translate(1113.190953 -60.0625)"/>
     <use xlink:href="#STIXSizeTwoSym-Regular-29" transform="translate(1195.173375 -33.28125) scale(0.959688)"/>
     <use xlink:href="#DejaVuSans-3d" transform="translate(1273.004796 0.296875)"/>
     <use xlink:href="#DejaVuSans-Oblique-192" transform="translate(1376.27628 0.296875)"/>
     <use xlink:href="#STIXSizeTwoSym-Regular-28" transform="translate(1411.481358 -33.28125) scale(0.959688)"/>
     <use xlink:href="#DejaVuSans-31" transform="translate(1468.006947 44.09375)"/>
     <use xlink:href="#DejaVuSans-Oblique-54" transform="translate(1469.006947 -60.0625)"/>
     <use xlink:href="#STIXSizeTwoSym-Regular-29" transform="translate(1544.129994 -33.28125) scale(0.959688)"/>
     <use xlink:href="#DejaVuSans-20" transform="translate(1602.478993 0.296875)"/>
     <use xlink:href="#DejaVuSans-64" transform="translate(1634.266102 0.296875)"/>
     <use xlink:href="#DejaVuSans-6c" transform="translate(1697.742665 0.296875)"/>
     <use xlink:href="#DejaVuSans-61" transform="translate(1725.525868 0.296875)"/>
     <use xlink:href="#DejaVuSans-20" transform="translate(1786.805165 0.296875)"/>
     <use xlink:href="#DejaVuSans-70" transform="translate(1818.592274 0.296875)"/>
     <use xlink:href="#DejaVuSans-f3" transform="translate(1882.068837 0.296875)"/>
     <use xlink:href="#DejaVuSans-142" transform="translate(1943.250477 0.296875)"/>
     <use xlink:href="#DejaVuSans-70" transform="translate(1971.668446 0.296875)"/>
     <use xlink:href="#DejaVuSans-72" transform="translate(2035.145009 0.296875)"/>
     <use xlink:href="#DejaVuSans-7a" transform="translate(2076.25829 0.296875)"/>
     <use xlink:href="#DejaVuSans-65" transform="translate(2128.748524 0.296875)"/>
     <use xlink:href="#DejaVuSans-77" transform="translate(2190.271962 0.296875)"/>
     <use xlink:href="#DejaVuSans-6f" transform="translate(2272.059071 0.296875)"/>
     <use xlink:href="#DejaVuSans-64" transform="translate(2333.240712 0.296875)"/>
     <use xlink:href="#DejaVuSans-6e" transform="translate(2396.717274 0.296875)"/>
     <use xlink:href="#DejaVuSans-69" transform="translate(2460.09618 0.296875)"/>
     <use xlink:href="#DejaVuSans-6b" transform="translate(2487.879384 0.296875)"/>
     <use xlink:href="#DejaVuSans-61" transform="translate(2545.78954 0.296875)"/>
     <path d="M 1113.190953 19.09375 
L 1113.190953 25.34375 
L 1182.673375 25.34375 
L 1182.673375 19.09375 
L 1113.190953 19.09375 
z
"/>
     <path d="M 1468.006947 19.09375 
L 1468.006947 25.34375 
L 1531.629994 25.34375 
L 1531.629994 19.09375 
L 1468.006947 19.09375 
z
"/>
    </g>
   </g>
   <g id="legend_1">
    <g id="patch_11">
     <path d="M 356.445312 107.796563 
L 610.445312 107.796563 
Q 612.445312 107.796563 612.445312 105.796563 
L 612.445312 83.996563 
Q 612.445312 81.996563 610.445312 81.996563 
L 356.445312 81.996563 
Q 354.445312 81.996563 354.445312 83.996563 
L 354.445312 105.796563 
Q 354.445312 107.796563 356.445312 107.796563 
z
" style="fill: #ffffff; opacity: 0.8; stroke: #cccccc; stroke-linejoin: miter"/>
    </g>
    <g id="line2d_91">
     <path d="M 358.445312 94.196563 
L 368.445312 94.196563 
L 378.445312 94.196563 
" style="fill: none; stroke: #1f77b4; stroke-width: 1.5; stroke-linecap: square"/>
    </g>
    <g id="text_26">
     <!-- Regresja liniowa $ln($$\sigma$) = -3897.497 $\dfrac{1}{T}$+0.877 -->
     <g transform="translate(386.445312 97.696563) scale(0.1 -0.1)">
      <defs>
       <path id="DejaVuSans-52" d="M 2841 2188 
Q 3044 2119 3236 1894 
Q 3428 1669 3622 1275 
L 4263 0 
L 3584 0 
L 2988 1197 
Q 2756 1666 2539 1819 
Q 2322 1972 1947 1972 
L 1259 1972 
L 1259 0 
L 628 0 
L 628 4666 
L 2053 4666 
Q 2853 4666 3247 4331 
Q 3641 3997 3641 3322 
Q 3641 2881 3436 2590 
Q 3231 2300 2841 2188 
z
M 1259 4147 
L 1259 2491 
L 2053 2491 
Q 2509 2491 2742 2702 
Q 2975 2913 2975 3322 
Q 2975 3731 2742 3939 
Q 2509 4147 2053 4147 
L 1259 4147 
z
" transform="scale(0.015625)"/>
       <path id="DejaVuSans-6a" d="M 603 3500 
L 1178 3500 
L 1178 -63 
Q 1178 -731 923 -1031 
Q 669 -1331 103 -1331 
L -116 -1331 
L -116 -844 
L 38 -844 
Q 366 -844 484 -692 
Q 603 -541 603 -63 
L 603 3500 
z
M 603 4863 
L 1178 4863 
L 1178 4134 
L 603 4134 
L 603 4863 
z
" transform="scale(0.015625)"/>
       <path id="DejaVuSans-Oblique-3c3" d="M 2219 3044 
Q 1744 3044 1422 2700 
Q 1081 2341 969 1747 
Q 844 1119 1044 756 
Q 1241 397 1706 397 
Q 2166 397 2503 759 
Q 2844 1122 2966 1747 
Q 3075 2319 2881 2700 
Q 2700 3044 2219 3044 
z
M 2309 3503 
L 4219 3500 
L 4106 2925 
L 3463 2925 
Q 3706 2438 3575 1747 
Q 3406 888 2884 400 
Q 2359 -91 1609 -91 
Q 856 -91 525 400 
Q 194 888 363 1747 
Q 528 2609 1050 3097 
Q 1484 3503 2309 3503 
z
" transform="scale(0.015625)"/>
       <path id="DejaVuSans-2d" d="M 313 2009 
L 1997 2009 
L 1997 1497 
L 313 1497 
L 313 2009 
z
" transform="scale(0.015625)"/>
       <path id="DejaVuSans-39" d="M 703 97 
L 703 672 
Q 941 559 1184 500 
Q 1428 441 1663 441 
Q 2288 441 2617 861 
Q 2947 1281 2994 2138 
Q 2813 1869 2534 1725 
Q 2256 1581 1919 1581 
Q 1219 1581 811 2004 
Q 403 2428 403 3163 
Q 403 3881 828 4315 
Q 1253 4750 1959 4750 
Q 2769 4750 3195 4129 
Q 3622 3509 3622 2328 
Q 3622 1225 3098 567 
Q 2575 -91 1691 -91 
Q 1453 -91 1209 -44 
Q 966 3 703 97 
z
M 1959 2075 
Q 2384 2075 2632 2365 
Q 2881 2656 2881 3163 
Q 2881 3666 2632 3958 
Q 2384 4250 1959 4250 
Q 1534 4250 1286 3958 
Q 1038 3666 1038 3163 
Q 1038 2656 1286 2365 
Q 1534 2075 1959 2075 
z
" transform="scale(0.015625)"/>
       <path id="DejaVuSans-37" d="M 525 4666 
L 3525 4666 
L 3525 4397 
L 1831 0 
L 1172 0 
L 2766 4134 
L 525 4134 
L 525 4666 
z
" transform="scale(0.015625)"/>
       <path id="DejaVuSans-2b" d="M 2944 4013 
L 2944 2272 
L 4684 2272 
L 4684 1741 
L 2944 1741 
L 2944 0 
L 2419 0 
L 2419 1741 
L 678 1741 
L 678 2272 
L 2419 2272 
L 2419 4013 
L 2944 4013 
z
" transform="scale(0.015625)"/>
      </defs>
      <use xlink:href="#DejaVuSans-52" transform="translate(0 0.296875)"/>
      <use xlink:href="#DejaVuSans-65" transform="translate(69.482422 0.296875)"/>
      <use xlink:href="#DejaVuSans-67" transform="translate(131.005859 0.296875)"/>
      <use xlink:href="#DejaVuSans-72" transform="translate(194.482422 0.296875)"/>
      <use xlink:href="#DejaVuSans-65" transform="translate(235.595703 0.296875)"/>
      <use xlink:href="#DejaVuSans-73" transform="translate(297.119141 0.296875)"/>
      <use xlink:href="#DejaVuSans-6a" transform="translate(349.21875 0.296875)"/>
      <use xlink:href="#DejaVuSans-61" transform="translate(377.001953 0.296875)"/>
      <use xlink:href="#DejaVuSans-20" transform="translate(438.28125 0.296875)"/>
      <use xlink:href="#DejaVuSans-6c" transform="translate(470.068359 0.296875)"/>
      <use xlink:href="#DejaVuSans-69" transform="translate(497.851562 0.296875)"/>
      <use xlink:href="#DejaVuSans-6e" transform="translate(525.634766 0.296875)"/>
      <use xlink:href="#DejaVuSans-69" transform="translate(589.013672 0.296875)"/>
      <use xlink:href="#DejaVuSans-6f" transform="translate(616.796875 0.296875)"/>
      <use xlink:href="#DejaVuSans-77" transform="translate(677.978516 0.296875)"/>
      <use xlink:href="#DejaVuSans-61" transform="translate(759.765625 0.296875)"/>
      <use xlink:href="#DejaVuSans-20" transform="translate(821.044922 0.296875)"/>
      <use xlink:href="#DejaVuSans-Oblique-6c" transform="translate(852.832031 0.296875)"/>
      <use xlink:href="#DejaVuSans-Oblique-6e" transform="translate(880.615234 0.296875)"/>
      <use xlink:href="#DejaVuSans-28" transform="translate(943.994141 0.296875)"/>
      <use xlink:href="#DejaVuSans-Oblique-3c3" transform="translate(983.007812 0.296875)"/>
      <use xlink:href="#DejaVuSans-29" transform="translate(1046.386719 0.296875)"/>
      <use xlink:href="#DejaVuSans-20" transform="translate(1085.400391 0.296875)"/>
      <use xlink:href="#DejaVuSans-3d" transform="translate(1117.1875 0.296875)"/>
      <use xlink:href="#DejaVuSans-20" transform="translate(1200.976562 0.296875)"/>
      <use xlink:href="#DejaVuSans-2d" transform="translate(1232.763672 0.296875)"/>
      <use xlink:href="#DejaVuSans-33" transform="translate(1268.847656 0.296875)"/>
      <use xlink:href="#DejaVuSans-38" transform="translate(1332.470703 0.296875)"/>
      <use xlink:href="#DejaVuSans-39" transform="translate(1396.09375 0.296875)"/>
      <use xlink:href="#DejaVuSans-37" transform="translate(1459.716797 0.296875)"/>
      <use xlink:href="#DejaVuSans-2e" transform="translate(1523.339844 0.296875)"/>
      <use xlink:href="#DejaVuSans-34" transform="translate(1555.126953 0.296875)"/>
      <use xlink:href="#DejaVuSans-39" transform="translate(1618.75 0.296875)"/>
      <use xlink:href="#DejaVuSans-37" transform="translate(1682.373047 0.296875)"/>
      <use xlink:href="#DejaVuSans-20" transform="translate(1745.996094 0.296875)"/>
      <use xlink:href="#DejaVuSans-31" transform="translate(1777.783203 44.09375)"/>
      <use xlink:href="#DejaVuSans-Oblique-54" transform="translate(1778.783203 -60.0625)"/>
      <use xlink:href="#DejaVuSans-2b" transform="translate(1853.90625 0.296875)"/>
      <use xlink:href="#DejaVuSans-30" transform="translate(1937.695312 0.296875)"/>
      <use xlink:href="#DejaVuSans-2e" transform="translate(2001.318359 0.296875)"/>
      <use xlink:href="#DejaVuSans-38" transform="translate(2030.480469 0.296875)"/>
      <use xlink:href="#DejaVuSans-37" transform="translate(2094.103516 0.296875)"/>
      <use xlink:href="#DejaVuSans-37" transform="translate(2155.976562 0.296875)"/>
      <path d="M 1777.783203 19.09375 
L 1777.783203 25.34375 
L 1841.40625 25.34375 
L 1841.40625 19.09375 
L 1777.783203 19.09375 
z
"/>
     </g>
    </g>
   </g>
  </g>
 </g>
 <defs>
  <clipPath id="pfe05c6ecd6">
   <rect x="59.445313" y="76.996563" width="558" height="554.4"/>
  </clipPath>
 </defs>
</svg>
